<svg width="480" height="476" viewBox="0 0 480 476" fill="none" xmlns="http://www.w3.org/2000/svg">
<ellipse cx="240" cy="238" rx="240" ry="238" fill="#F3B9A0"/>
<path d="M71.0539 403.245C71.0539 403.245 35.5822 359.996 52.6384 282.238C59.079 252.914 73.4489 225.896 93.2885 203.167C129.213 162.062 199.186 84.3998 230.547 66.5367C235.402 63.7837 241.325 63.9757 245.985 67.0489C258.284 75.1481 282.072 97.0127 283.593 145.896C283.949 157.677 297.607 163.791 306.96 156.524C311.071 153.323 321.46 125.024 329.324 124.223C339.811 123.135 343.888 131.682 346.672 134.596C360.815 149.385 423.409 203.807 431.856 336.435C431.856 336.435 443.928 464.133 247.215 472.489C247.215 472.489 120.507 478.443 71.0216 403.245H71.0539Z" fill="#FF814A"/>
<path d="M321.068 296.34C351.863 317.292 397.96 364.816 336.752 438.305C329.339 447.216 331.354 450.5 321.068 459C314.211 477.7 186.642 487.248 142.286 452.2C131.978 445.749 118.482 406.112 120.137 389.472C123.095 359.77 129.967 311.798 189.425 283.501C208.1 274.622 207.909 268.011 210.804 254.118C214.049 238.628 211.44 232.975 206.636 211.641C203.773 199.025 206.954 168.428 213.063 157.058C219.521 145.018 242.394 135.213 264.218 141.217C281.174 145.88 286.678 160.348 293.168 176.732C301.153 196.853 300.23 228.472 301.057 259.516C301.439 274.271 308.915 288.037 321.068 296.308V296.34Z" fill="#FFC64A"/>
<path d="M276 200.6C282.627 200.6 288 195.272 288 188.7C288 182.128 282.627 176.8 276 176.8C269.373 176.8 264 182.128 264 188.7C264 195.272 269.373 200.6 276 200.6Z" fill="white"/>
<path d="M274.286 200.6C278.073 200.6 281.143 197.556 281.143 193.8C281.143 190.044 278.073 187 274.286 187C270.499 187 267.429 190.044 267.429 193.8C267.429 197.556 270.499 200.6 274.286 200.6Z" fill="black"/>
<path d="M228 204C234.627 204 240 198.672 240 192.1C240 185.528 234.627 180.2 228 180.2C221.373 180.2 216 185.528 216 192.1C216 198.672 221.373 204 228 204Z" fill="white"/>
<path d="M233.143 204C236.93 204 240 200.956 240 197.2C240 193.444 236.93 190.4 233.143 190.4C229.356 190.4 226.286 193.444 226.286 197.2C226.286 200.956 229.356 204 233.143 204Z" fill="black"/>
<path d="M245.169 163.924C249.868 162.154 250.574 152.615 246.745 142.619C242.916 132.623 236.002 125.954 231.302 127.725C226.603 129.495 225.897 139.034 229.726 149.03C233.555 159.026 240.469 165.694 245.169 163.924Z" fill="#FFC64A"/>
<path d="M261.048 153.387C264.499 143.256 263.232 133.682 258.217 132.001C253.202 130.321 246.338 137.171 242.886 147.301C239.434 157.431 240.701 167.006 245.717 168.687C250.732 170.367 257.596 163.517 261.048 153.387Z" fill="#FFC64A"/>
<path d="M277.001 230.072C277.986 226.285 270.292 221.043 259.816 218.364C249.34 215.685 240.049 216.583 239.065 220.37C238.08 224.157 245.774 229.399 256.25 232.078C266.725 234.757 276.016 233.858 277.001 230.072Z" fill="#FF814A"/>
<path d="M259.964 222.242C270.185 218.726 277.423 212.88 276.131 209.185C274.838 205.491 265.505 205.345 255.284 208.861C245.063 212.377 237.825 218.222 239.117 221.917C240.409 225.612 249.743 225.757 259.964 222.242Z" fill="#FF814A"/>
<path d="M240.533 176.734C241.209 175.316 238.894 172.824 235.361 171.166C231.828 169.509 228.416 169.314 227.74 170.731C227.064 172.149 229.38 174.641 232.912 176.299C236.445 177.956 239.857 178.151 240.533 176.734Z" fill="black"/>
<path d="M269.592 174.009C273.124 172.352 275.44 169.859 274.764 168.442C274.088 167.025 270.676 167.219 267.143 168.877C263.61 170.534 261.295 173.027 261.971 174.444C262.647 175.861 266.059 175.667 269.592 174.009Z" fill="black"/>
</svg>
