<?xml version="1.0" encoding="UTF-8"?>
<svg id="Layer_2" xmlns="http://www.w3.org/2000/svg" viewBox="0 0 200 200">
  <defs>
    <style>
      .cls-1 {
        fill: #6a58b9;
      }

      .cls-2 {
        fill: #0082c9;
        font-family: Kavoon-Regular, Kavoon;
        font-size: 19px;
      }

      .cls-3 {
        fill: #fff;
      }

      .cls-4 {
        fill: #ffc64a;
      }

      .cls-5 {
        fill: #8482c9;
      }

      .cls-6 {
        fill: #f8605c;
      }

      .cls-7 {
        fill: #ff814a;
      }

      .cls-8 {
        fill: #fdc234;
      }

      .cls-9 {
        fill: #bdeafd;
      }
    </style>
  </defs>
  <g id="Badge_5">
    <g>
      <circle id="Badge" class="cls-9" cx="100" cy="100" r="100"/>
      <path id="Chair" class="cls-5" d="M58.57,135.92l-3.3-47.73s4.63-5.2,13.05-4.53c0,0,7.1-42.13,32.71-44,0,0,26.27-.4,32.87,44.26,0,0,11.56-1.07,13.05,4.13l-1.65,76.66-83.92-.13-2.81-28.66Z"/>
      <path id="Chair_Back" class="cls-1" d="M68.15,151.39l-.5-53.73s28.74-16.13,67.24,0v54l-66.74-.27Z"/>
      <path id="Body" class="cls-4" d="M114.69,132.55c5.61,3.8,13.89,11.07,2.74,24.4-1.35,1.62-2.59,2.6-4.53,3.44-5.74,2.47-17.18,5.02-27.25-1.76-2.03-1.36-7.2-5.48-6.9-8.5.54-5.39,1.15-14.77,11.97-19.9,3.4-1.61,3.37-2.81,3.9-5.33.59-2.81.12-3.84-.76-7.7-.52-2.29.06-7.84,1.17-9.9,1.18-2.18,5.34-3.96,9.31-2.87,3.09.85,4.09,3.47,5.27,6.44,1.45,3.65,1.29,9.38,1.44,15.01.07,2.68,1.43,5.17,3.65,6.67Z"/>
      <ellipse id="Eye_Right" class="cls-3" cx="106.33" cy="111.39" rx="2.17" ry="2.31"/>
      <ellipse id="Eye_Right-2" data-name="Eye_Right" cx="105.94" cy="112.57" rx="1.12" ry="1.19"/>
      <ellipse id="Eye_Left" class="cls-3" cx="98" cy="112.17" rx="2.17" ry="2.31"/>
      <ellipse id="Eye_Left-2" data-name="Eye_Left" cx="98.8" cy="113.04" rx="1.12" ry="1.19"/>
      <ellipse id="Mouth_Top" class="cls-7" cx="103.19" cy="118.14" rx="1.29" ry="3.53" transform="translate(-36.98 188.56) rotate(-75.54)"/>
      <ellipse id="Mouth_Bottom" class="cls-7" cx="103.13" cy="116.39" rx="3.53" ry="1.29" transform="translate(-32.45 40.23) rotate(-19.13)"/>
      <path id="Crown" class="cls-7" d="M94.71,106.58l-.85-3.6c-.09-.36-.3-.68-.58-.91-.5-.4-1.21-1.17-1.07-2.18.11-.8.85-1.42,1.65-1.35.68.06,1.39.55,1.31,2.42-.02.41.12.82.39,1.12.4.43,1.08.9,2.11.81.1,0,.19-.02.29-.05.53-.15,2.13-.82,2.61-3.66.05-.31,0-.64-.16-.92-.41-.77-1.11-2.49.24-3.47.53-.38,1.28-.38,1.81,0,.66.48,1.21,1.66.31,3.31-.16.29-.1.68-.05,1.01.14,1,.56,2.7,1.77,3.49.19.12.41.18.64.2.62.05,1.89,0,2.78-1.13.21-.27.32-.6.33-.94.02-.91.23-2.72,2.09-1.96,0,0,2.15,1.44-.07,3.14-.35.27-.59.65-.65,1.09-.14.97-.43,2.62-.92,3.85-.21.52-.71.86-1.27.85l-11.5-.16c-.57,0-1.05-.4-1.18-.95Z"/>
      <path id="Cushion" class="cls-6" d="M59.03,147.04s46.02-10.94,82.48.79v14.36H58.84l.2-15.16Z"/>
      <path id="Chair_Bottom" class="cls-8" d="M38.64,177.79c-1.46,0-2.77-.72-3.31-1.81-2.37-4.77-8.01-17.31-1.99-17.48l65.44.43c1.97.02,3.59,1.72,3.56,3.31l-.28,12.73c-.03,1.57-1.17,2.83-3.12,2.83h-60.31Z"/>
      <path id="Chair_Bottom-2" data-name="Chair_Bottom" class="cls-8" d="M160.2,177.74c1.46,0,2.77-.72,3.31-1.81,2.37-4.77,8.01-17.31,1.99-17.48l-65.44.43c-1.97.02-3.59,1.72-3.56,3.31l.28,12.73c.03,1.57,1.17,2.83,3.12,2.83h60.31Z"/>
      <rect id="Chair_Arm" class="cls-7" x="50.87" y="128.41" width="23.49" height="12.59" rx="3.08" ry="3.08"/>
      <path id="Chair_Leg" class="cls-7" d="M55.66,141.83l1.21,4.73c.56,2.17.87,4.4.96,6.64.23,6.15,1.04,19.28,3.81,23.42.41.61,1.16,1.27,1.87,1.31l3.35-.09c.59.03,1.17-.16,1.62-.56.88-.78,2.17-2.43,2.56-5.57.01-.12.02-.25.02-.37v-30.05c0-1.36-1.04-2.47-2.34-2.48l-10.78-.1c-1.56-.01-2.7,1.54-2.29,3.12Z"/>
      <rect id="Chair_Arm-2" data-name="Chair_Arm" class="cls-7" x="136.15" y="128.38" width="23.49" height="12.59" rx="3.08" ry="3.08" transform="translate(295.8 269.35) rotate(-180)"/>
      <path id="Chair_Leg-2" data-name="Chair_Leg" class="cls-7" d="M154.99,141.27l-.52,2.05c-1.04,4.08-1.68,8.25-1.9,12.46-.35,6.69-1.27,17.2-3.69,20.82-.41.61-1.16,1.27-1.87,1.31l-3.35-.09c-.59.03-1.17-.16-1.62-.56-.88-.78-2.18-2.44-2.56-5.61-.01-.1-.02-.21-.02-.31v-30.5c0-1.13.87-2.05,1.94-2.06l11.69-.1c1.29-.01,2.24,1.28,1.91,2.6Z"/>
      <path id="Flame_Logo_Outer" class="cls-1" d="M90.45,74.12s-2.37-2.92-1.23-8.16c.43-1.98,1.39-3.8,2.71-5.33,2.4-2.77,7.06-8.01,9.16-9.21.32-.19.72-.17,1.03.03.82.55,2.41,2.02,2.51,5.31.02.79.93,1.21,1.56.72.27-.22.97-2.12,1.49-2.18.7-.07.97.5,1.16.7.94,1,5.12,4.67,5.68,13.61,0,0,.8,8.61-12.31,9.17,0,0-8.45.4-11.75-4.67Z"/>
      <path id="Flame_Logo_Inner" class="cls-7" d="M93.24,72.93s-1.84-2.26-.95-6.33c.33-1.53,1.08-2.95,2.1-4.14,1.86-2.15,5.48-6.21,7.1-7.15.25-.14.56-.13.8.03.64.42,1.87,1.57,1.95,4.12.02.62.72.94,1.21.56.21-.17.75-1.65,1.16-1.69.54-.06.75.39.9.54.73.77,3.97,3.62,4.41,10.56,0,0,.62,6.68-9.55,7.12,0,0-6.56.31-9.11-3.62Z"/>
      <g>
        <text class="cls-2" transform="translate(32.91 71.91) rotate(-51.62)"><tspan x="0" y="0">B</tspan></text>
        <text class="cls-2" transform="translate(40.29 62.62) rotate(-46.99)"><tspan x="0" y="0">e</tspan></text>
        <text class="cls-2" transform="translate(47.44 55.07) rotate(-43.84)"><tspan x="0" y="0"> </tspan></text>
        <text class="cls-2" transform="translate(50.23 52.24) rotate(-40.39)"><tspan x="0" y="0">a</tspan></text>
        <text class="cls-2" transform="translate(58.33 45.48) rotate(-36.56)"><tspan x="0" y="0"> </tspan></text>
        <text class="cls-2" transform="translate(61.42 43.05) rotate(-32.49)"><tspan x="0" y="0">c</tspan></text>
        <text class="cls-2" transform="translate(69.53 37.79) rotate(-25.53)"><tspan x="0" y="0">o</tspan></text>
        <text class="cls-2" transform="translate(78.78 32.89) rotate(-14.06)"><tspan x="0" y="0">m</tspan></text>
        <text class="cls-2" transform="translate(95.28 29.01) rotate(-.47)"><tspan x="0" y="0">p</tspan></text>
        <text class="cls-2" transform="translate(106.35 29.07) rotate(8.24)"><tspan x="0" y="0">l</tspan></text>
        <text class="cls-2" transform="translate(112.37 29.77) rotate(16.22)"><tspan x="0" y="0">a</tspan></text>
        <text class="cls-2" transform="translate(122.27 32.77) rotate(23.59)"><tspan x="0" y="0">i</tspan></text>
        <text class="cls-2" transform="translate(128.06 35.09) rotate(30.63)"><tspan x="0" y="0">n</tspan></text>
        <text class="cls-2" transform="translate(138.33 41.39) rotate(35.9)"><tspan x="0" y="0"> </tspan></text>
        <text class="cls-2" transform="translate(141.6 43.6) rotate(40.12)"><tspan x="0" y="0">k</tspan></text>
        <text class="cls-2" transform="translate(149.89 50.68) rotate(44.32)"><tspan x="0" y="0">i</tspan></text>
        <text class="cls-2" transform="translate(154.55 55.11) rotate(48.11)"><tspan x="0" y="0">n</tspan></text>
        <text class="cls-2" transform="translate(162.62 64.16) rotate(51.94)"><tspan x="0" y="0">g</tspan></text>
      </g>
    </g>
  </g>
</svg>