<svg width="480" height="480" viewBox="0 0 480 480" fill="none" xmlns="http://www.w3.org/2000/svg">
<circle cx="240" cy="240" r="240" fill="#A9B67F"/>
<path d="M246.377 101.143C246.377 101.143 269.177 39.7714 279.463 27.4286L285.051 30.48C285.051 30.48 269.657 54.5829 279.326 68.8457C279.943 69.7371 280.834 70.3543 281.863 70.6629C285.84 71.76 296.297 71.1086 311.588 44.8114L317.314 47.8971C317.314 47.8971 300.72 72.9257 311.966 87.0514C312.343 87.5314 313.817 88.5943 314.434 88.6286C318.034 88.9371 331.131 88.0114 344.503 62.64L350.4 65.8286C350.4 65.8286 318.137 122.469 305.52 134.16L246.343 101.177L246.377 101.143Z" fill="#8D5F4A"/>
<path d="M275.845 76.2334L273.93 67.4219L265.118 69.3367L267.033 78.1482L275.845 76.2334Z" fill="#E8CABA"/>
<path d="M319.389 105.047L317.474 96.2352L308.663 98.15L310.578 106.962L319.389 105.047Z" fill="#E8CABA"/>
<path d="M297.547 88.8326L295.633 80.0211L286.821 81.9358L288.736 90.7473L297.547 88.8326Z" fill="#E8CABA"/>
<path d="M296.023 429.84L296.263 430.56C297.84 435.531 295.474 440.743 290.846 443.143C286.217 445.543 281.28 450.137 281.006 458.503C280.903 461.383 282.171 464.16 284.297 466.114C289.44 470.811 301.097 476.709 320.228 461.143C320.228 461.143 339.086 447.909 320.777 419.554C318.926 416.674 315.737 414.789 312.308 414.686C308.88 414.583 304.286 415.166 300.068 417.909C296.194 420.446 294.617 425.383 296.057 429.806L296.023 429.84Z" fill="#FF814A"/>
<path d="M171.017 426.549L170.194 429.531C169.131 433.371 165.909 436.183 162 436.903C153.566 438.446 141.086 443.143 153.669 457.509C154.046 457.92 154.457 458.331 154.869 458.674C157.474 460.766 167.211 467.349 184.697 464.777C186.549 464.503 188.263 463.68 189.703 462.514C193.646 459.223 200.537 451.029 202.286 433.029C202.766 427.954 199.44 423.291 194.503 422.057L183.463 419.314C178.046 417.977 172.526 421.166 171.017 426.549Z" fill="#FF814A"/>
<path d="M180.583 214.423C180.446 213.634 167.897 139.371 217.817 108.823C218.914 108.137 220.183 107.691 221.28 106.971C229.817 101.486 272.503 77.1429 304.217 115.166C307.474 119.074 309.497 123.909 310.046 128.983C311.383 141.223 309.429 164.914 282.617 188.983C282.617 188.983 273.909 197.863 266.091 209.829C253.303 229.474 271.509 253.851 294.343 248.571C294.446 248.571 294.446 248.571 294.651 248.503C297.223 247.749 301.509 246.96 304.183 246.926C330.411 246.823 392.366 258.069 378.48 353.623C378.309 354.789 378.206 355.989 378.206 357.154C378.137 367.2 372.891 427.749 253.92 434.983C253.886 435.017 113.451 440.811 113.143 345.669C113.143 343.989 113.349 342.274 113.691 340.594C116.229 328.011 124.731 292.251 141.497 278.263C144.754 275.554 167.794 254.297 169.474 250.423C172.08 244.423 181.474 236.571 180.583 214.389V214.423Z" fill="#FFC64A"/>
<path d="M243.127 131.872C244.097 124.36 239.175 117.533 232.132 116.623C225.09 115.714 218.594 121.066 217.624 128.578C216.654 136.089 221.576 142.916 228.619 143.826C235.661 144.736 242.156 139.384 243.127 131.872Z" fill="white"/>
<path d="M230.866 129.247C231.366 125.378 228.832 121.863 225.208 121.395C221.584 120.927 218.24 123.683 217.741 127.552C217.241 131.42 219.774 134.936 223.398 135.404C227.023 135.872 230.366 133.116 230.866 129.247Z" fill="black"/>
<path d="M270.283 138.261C271.253 130.75 266.331 123.923 259.288 123.013C252.246 122.103 245.751 127.456 244.78 134.967C243.81 142.479 248.732 149.306 255.775 150.216C262.817 151.125 269.312 145.773 270.283 138.261Z" fill="white"/>
<path d="M258.088 135.95C258.588 132.082 256.055 128.566 252.43 128.098C248.806 127.63 245.462 130.386 244.963 134.255C244.463 138.124 246.996 141.639 250.621 142.107C254.245 142.576 257.588 139.819 258.088 135.95Z" fill="black"/>
<path d="M206.163 159.404C208.584 154.057 198.673 144.348 184.026 137.72C169.38 131.091 155.545 130.053 153.125 135.401C150.705 140.749 160.616 150.457 175.262 157.086C189.908 163.714 203.743 164.752 206.163 159.404Z" fill="#FF814A"/>
<path d="M180.646 173.631C196.294 169.946 207.889 162.327 206.544 156.613C205.198 150.9 191.422 149.255 175.774 152.939C160.126 156.624 148.531 164.243 149.876 169.957C151.222 175.67 164.998 177.315 180.646 173.631Z" fill="#FF814A"/>
<path d="M347.348 321.84C347.348 321.84 334.628 347.28 315.531 330.617C315.531 330.617 279.566 380.537 254.4 309.086" stroke="#FEECC2" stroke-width="3" stroke-linecap="round" stroke-linejoin="round"/>
</svg>
