<?xml version="1.0" encoding="UTF-8"?>
<svg id="Layer_2" xmlns="http://www.w3.org/2000/svg" viewBox="0 0 200 200.14">
  <defs>
    <style>
      .cls-1 {
        fill: #8d5f4a;
      }

      .cls-2 {
        fill: #fff;
      }

      .cls-3 {
        fill: #ffc64a;
      }

      .cls-4 {
        fill: none;
        stroke: #feecc2;
        stroke-linecap: round;
        stroke-linejoin: round;
        stroke-width: 3px;
      }

      .cls-5 {
        fill: #ffb564;
      }

      .cls-6, .cls-7 {
        fill: #e8caba;
      }

      .cls-8 {
        fill: #ff814a;
      }

      .cls-7 {
        font-family: Kavoon-Regular, Kavoon;
        font-size: 20px;
      }
    </style>
  </defs>
  <g id="Badge_1">
    <g>
      <circle id="Badge" class="cls-1" cx="100" cy="100" r="100"/>
      <path id="Cup" class="cls-5" d="M48.45,114.48l-8.61,25.37s-5.08,5.74-14.47,2.19c0,0-9.06-2.95-7.76-8.4l6.86-23.65s2.44,2.03,2.85,3.27c0,0,.66.95,5.81.71,0,0,2.46,1.26,3.33,3.15,0,0,2.64,2.01,5.72-1.06,0,0,2.7-3.18,6.27-1.57Z"/>
      <path id="Mug_Holder" class="cls-5" d="M44.6,120.23c1.39.47,4.58,1.82,5.86,4.49.42.88.53,2.03.38,3.16-.37,2.8-1.79,8.9-7.03,11.15,0,0-3.23,1.81-8.17-.25-.43-.18-.69-.54-.5-.88l1.24-2.32c.26-.5,1.14-.44,1.42.08.39.75,1.11.9,2.4,1.52.02,0,.47.24.49.25.42.18,2.8-.56,6.06-6.21,0-.02,0,.02,0,0,.2-.44,2.18-4.63-.51-7.32,0,0-1.14-1.58-2.39-1.57-.6,0-1.01-.54-.74-.96l.55-.88c.17-.28.58-.39.95-.26Z"/>
      <path id="Foam" class="cls-2" d="M41.44,108.35c.95.55,1.99,1.32,3.07,1.12,1.73-.31,3.77.69,5.12,3.45,0,0,2.29,5.18-1.48,5.98-.59.13-1.2.05-1.77-.16-1.22-.45-4.09-1.09-6.36,1.69,0,0-4.58,5.38-7.24-1.84,0-.03-.02-.05-.04-.07,0,0-.77-1.05-3.12-.55-1.05.22-2.17-.01-2.93-.77-.21-.21-.38-.44-.5-.72-.15-.36-.47-.88-.74-1.16-1.07-1.09-3.18-3.63-2.81-6.21.15-1.01.81-1.88,1.71-2.36,1.43-.77,4.12-1.66,7.2.03.61.34,1.32.45,2.01.37.91-.11,2.32-.12,3.96.45.47.17.97.24,1.47.2.58-.05,1.47.01,2.43.56Z"/>
      <path id="Hand" class="cls-8" d="M64.74,129.78l-.32.19c-2.2,1.28-4.87,1.01-6.41-.5s-4.13-2.87-8.11-1.88c-1.36.34-2.56,1.2-3.29,2.29-1.76,2.64-3.52,8.03,5.49,13.56,0,0,7.88,5.73,19.65-5.22,1.2-1.12,1.81-2.61,1.56-3.99s-.93-3.1-2.59-4.41c-1.53-1.21-4.01-1.17-5.96-.04Z"/>
      <path id="Body" class="cls-3" d="M72.94,110.53s0,0,0-.01c-.05-.32-5.15-30.48,15.12-42.9.45-.28.96-.46,1.4-.75,3.46-2.22,20.8-12.12,33.69,3.32,1.33,1.59,2.15,3.56,2.37,5.62.54,4.98-.25,14.6-11.14,24.37,0,0-3.54,3.6-6.71,8.47-5.19,7.98,2.2,17.88,11.48,15.74.04,0,.04,0,.12-.03,1.04-.31,2.79-.63,3.87-.63,10.65-.04,35.82,4.52,30.18,43.35-.07.48-.05.96-.12,1.44-1.23,9.25-2.16,28.67-50.49,31.62,0,0-61.98,1.09-58.14-33.09.08-.68,1.05-4.57,1.18-5.25,1.03-5.11,4.49-19.63,11.3-25.32,1.32-1.1,10.68-9.73,11.37-11.31,1.05-2.44,4.88-5.63,4.51-14.64Z"/>
      <ellipse id="Mouth_Top" class="cls-8" cx="72.57" cy="83.3" rx="4.32" ry="11.82" transform="translate(-33.24 115.08) rotate(-65.65)"/>
      <ellipse id="Mouth_Bottom" class="cls-8" cx="71.99" cy="89.77" rx="11.82" ry="4.32" transform="translate(-18.66 18.89) rotate(-13.25)"/>
      <path id="Wing" class="cls-4" d="M140.69,154.17s-5.17,10.33-12.93,3.57c0,0-14.61,20.28-24.84-8.75"/>
      <path id="Glasses_outer" class="cls-1" d="M81.25,69.16c2.02-.79,7.69-2.02,15.67,4.13.31.24.69.36,1.08.36.65,0,1.75.08,2.66.64.34.21.74.31,1.14.25,2.36-.34,10.52-1.12,15.21,3.26.44.41.63,1.02.5,1.61-.51,2.31-2.39,8.16-8.41,8.35-.09,0-.18,0-.27,0-1.14-.12-8.6-1.25-8.11-10.7.04-.73-.39-1.42-1.07-1.67-.36-.13-.81-.25-1.34-.3-.67-.07-1.31.31-1.61.9-.95,1.87-3.82,5.98-10.48,5.74-.21,0-.42-.06-.62-.14-1.42-.63-7.17-3.67-5.41-11.22.13-.55.51-1.01,1.03-1.21Z"/>
      <path id="Glasses_Right" class="cls-6" d="M102.22,76.85c1.32-.79,5.87-2.93,12.3.25,0,0,0,0,0,0-.07.05-7.21,5.5-10.6,6.5,0,0-2.42-1.23-2.13-6.05.02-.29.18-.55.43-.7Z"/>
      <path id="Glasses_Left" class="cls-6" d="M81.84,72.04c-.33,1.56-.48,4.13,1.24,6.41l10.64-6.37s-5.84-3.22-9.9-2.18c-1.02.26-1.76,1.12-1.98,2.14Z"/>
      <ellipse id="Hair" class="cls-3" cx="122.23" cy="62.6" rx="11.88" ry="5.54" transform="translate(-14.21 78.2) rotate(-33.64)"/>
      <ellipse id="Hair-2" data-name="Hair" class="cls-3" cx="113.81" cy="59.99" rx="11.88" ry="5.84" transform="translate(23.35 151.47) rotate(-73.11)"/>
      <text id="Text_Curve_Shape"/>
      <text class="cls-7" transform="translate(35.26 57.36) rotate(-33.23)"><tspan x="0" y="0">I</tspan></text>
      <text class="cls-7" transform="translate(41.03 53.56) rotate(-30.21)"><tspan x="0" y="0">t</tspan></text>
      <text class="cls-7" transform="translate(47.7 49.7) rotate(-27.37)"><tspan x="0" y="0">’</tspan></text>
      <text class="cls-7" transform="translate(52.44 47.17) rotate(-24.02)"><tspan x="0" y="0">s</tspan></text>
      <text class="cls-7" transform="translate(60.94 43.46) rotate(-20.77)"><tspan x="0" y="0"> </tspan></text>
      <text class="cls-7" transform="translate(64.79 41.84) rotate(-16.69)"><tspan x="0" y="0">Y</tspan></text>
      <text class="cls-7" transform="translate(76.07 38.45) rotate(-10.51)"><tspan x="0" y="0">a</tspan></text>
      <text class="cls-7" transform="translate(86.85 36.4) rotate(-3.94)"><tspan x="0" y="0">p</tspan></text>
      <text class="cls-7" transform="translate(98.63 35.56) rotate(3.07)"><tspan x="0" y="0">p</tspan></text>
      <text class="cls-7" transform="translate(110.46 36.18) rotate(9.94)"><tspan x="0" y="0">y</tspan></text>
      <text class="cls-7" transform="translate(121.82 38.31) rotate(14.45)"><tspan x="0" y="0"> </tspan></text>
      <text class="cls-7" transform="translate(125.85 39.13) rotate(19.36)"><tspan x="0" y="0">H</tspan></text>
      <text class="cls-7" transform="translate(138.87 43.77) rotate(25.69)"><tspan x="0" y="0">o</tspan></text>
      <text class="cls-7" transform="translate(149.1 48.66) rotate(31)"><tspan x="0" y="0">u</tspan></text>
      <text class="cls-7" transform="translate(159.61 55.04) rotate(35.37)"><tspan x="0" y="0">r</tspan></text>
    </g>
  </g>
</svg>