<svg width="480" height="480" viewBox="0 0 480 480" fill="none" xmlns="http://www.w3.org/2000/svg">
<circle cx="240" cy="240" r="240" fill="#E8CABA"/>
<path d="M209.728 281.344C208.79 279.469 207.749 277.281 206.603 274.781C205.457 272.177 204.311 269.469 203.165 266.656C202.124 263.844 201.238 260.927 200.509 257.906C199.78 254.885 199.415 251.917 199.415 249C199.415 245.354 200.144 242.125 201.603 239.312C203.061 236.396 204.988 233.896 207.384 231.812C209.884 229.625 212.749 227.75 215.978 226.188C219.311 224.521 222.801 223.115 226.446 221.969C232.592 219.99 238.79 218.479 245.04 217.438C251.29 216.292 256.707 215.146 261.29 214C262.019 212.854 262.384 211.708 262.384 210.562C262.384 209.312 262.124 208.271 261.603 207.438C258.478 204.938 254.988 202.542 251.134 200.25C247.28 197.854 242.384 195.354 236.446 192.75C230.613 190.146 223.478 187.333 215.04 184.312C206.707 181.188 196.446 177.698 184.259 173.844C184.155 173.01 184.051 172.177 183.946 171.344C183.946 170.51 183.946 169.677 183.946 168.844C183.946 162.594 185.092 156.396 187.384 150.25C189.78 144.104 192.749 138.531 196.29 133.531C199.832 128.531 203.738 124.417 208.009 121.188C212.28 117.854 216.342 115.927 220.196 115.406C222.696 115.406 226.03 115.979 230.196 117.125C234.363 118.167 238.894 119.729 243.79 121.812C248.686 123.896 253.79 126.5 259.103 129.625C264.415 132.646 269.519 136.135 274.415 140.094C279.415 144.052 283.999 148.427 288.165 153.219C292.332 157.906 295.717 163.01 298.321 168.531C300.717 173.635 302.749 179.677 304.415 186.656C306.186 193.531 307.071 200.667 307.071 208.062C307.071 214.729 306.186 221.188 304.415 227.438C302.644 233.583 299.624 239.104 295.353 244C291.186 248.792 285.613 252.646 278.634 255.562C271.655 258.479 262.905 259.938 252.384 259.938C251.863 259.938 251.29 259.938 250.665 259.938C250.144 259.833 249.571 259.781 248.946 259.781L242.071 282.906C237.071 284.469 232.28 285.25 227.696 285.25C221.551 285.25 215.561 283.948 209.728 281.344ZM191.603 337.906C191.603 333.844 192.28 329.938 193.634 326.188C194.988 322.438 197.176 319.104 200.196 316.188C203.321 313.167 207.384 310.771 212.384 309C217.488 307.229 223.738 306.344 231.134 306.344C238.53 306.344 244.728 307.229 249.728 309C254.832 310.771 258.894 313.167 261.915 316.188C265.04 319.104 267.28 322.438 268.634 326.188C269.988 329.938 270.665 333.844 270.665 337.906C270.665 342.594 269.519 347.021 267.228 351.188C265.04 355.25 262.071 358.844 258.321 361.969C254.676 365.094 250.457 367.542 245.665 369.312C240.978 371.188 236.134 372.125 231.134 372.125C226.134 372.125 221.238 371.188 216.446 369.312C211.759 367.542 207.54 365.094 203.79 361.969C200.144 358.844 197.176 355.25 194.884 351.188C192.696 347.021 191.603 342.594 191.603 337.906Z" fill="white"/>
</svg>
