<?xml version="1.0" encoding="UTF-8"?>
<svg id="Layer_2" xmlns="http://www.w3.org/2000/svg" viewBox="0 0 200 200">
  <defs>
    <style>
      .cls-1, .cls-2 {
        fill: #9654ba;
      }

      .cls-3 {
        fill: #e8bafa;
        opacity: .5;
      }

      .cls-4 {
        fill: #fff;
      }

      .cls-5 {
        fill: #ffc64a;
      }

      .cls-6 {
        fill: none;
        stroke: #feecc2;
        stroke-linecap: round;
        stroke-linejoin: round;
        stroke-width: 3px;
      }

      .cls-7 {
        fill: #f3e4ff;
      }

      .cls-8 {
        fill: #ff814a;
      }

      .cls-2 {
        font-family: Kavoon-Regular, Kavoon;
        font-size: 20px;
      }
    </style>
  </defs>
  <g id="Badge_6">
    <g>
      <circle id="Badge" class="cls-7" cx="100" cy="100" r="100"/>
      <g id="Wine_Glass_Right">
        <path id="Wine_Glass" class="cls-3" d="M115.57,103.11s-.09-.9-1.24-.46l-12.23,3.96c-.28.09-.52.29-.63.57-.06.14-.07.3,0,.44l2.49,7.55c.16.48.38.92.68,1.33.81,1.13,2.82,3,4.9,3.11.03,0,.59.06.61.06.86.06.98-.1,2.12,1.2.05.05.11.14.14.22l4.01,12.31s.42.79-1.21,2.28c-.02.02-.05.04-.07.06-.34.22-2.81,1.83-3.19,2.15,0,0-.68.74.26.65l12.65-4.19c.63-.21-.43-.69-1.07-.53-.03,0-.8.1-.83.11-.01,0-.17.01-.18.01-.26.05-3.72.73-4.34-1.11l-3.85-12.2c-.02-.08-.04-.15-.04-.23-.03-.35-.27-1.39.64-2.1,0,0,4.06-2.63,2.97-6.95,0-.03-.01-.05-.02-.08l-2.57-8.17Z"/>
        <path id="Wine_Glass_Liquid" class="cls-1" d="M104.21,115.78c.23.45.14.32.44.72.81,1.13,2.82,3,4.9,3.11.03,0,.59.06.61.06.86.06.98-.1,2.12,1.2.05.05.11.14.14.22l4.01,12.31s.42.79-1.21,2.28c-.02.02-.05.04-.07.06-.34.22-2.81,1.83-3.19,2.15,0,0-.68.74.26.65l12.65-4.19c.63-.21-.43-.69-1.07-.53-.03,0-.8.1-.83.11-.01,0-.17.01-.18.01-.26.05-3.72.73-4.34-1.11l-3.85-12.2c-.02-.08-.04-.15-.04-.23-.03-.35-.27-1.39.64-2.1,0,0,4.06-2.63,2.97-6.95,0-.03-.01-.05-.02-.08"/>
      </g>
      <g id="Wine_Glass_Left">
        <path id="Wine_Glass-2" data-name="Wine_Glass" class="cls-3" d="M85.44,104.18s.09-.9,1.24-.46l12.23,3.96c.28.09.52.29.63.57.06.14.07.3,0,.44l-2.49,7.55c-.16.48-.38.92-.68,1.33-.81,1.13-2.82,3-4.9,3.11-.03,0-.59.06-.61.06-.86.06-.98-.1-2.12,1.2-.05.05-.11.14-.14.22l-4.01,12.31s-.42.79,1.21,2.28c.02.02.05.04.07.06.34.22,2.81,1.83,3.19,2.15,0,0,.68.74-.26.65l-12.65-4.19c-.63-.21.43-.69,1.07-.53.03,0,.8.1.83.11.01,0,.17.01.18.01.26.05,3.72.73,4.34-1.11l3.85-12.2c.02-.08.04-.15.04-.23.03-.35.27-1.39-.64-2.1,0,0-4.06-2.63-2.97-6.95,0-.03.01-.05.02-.08l2.57-8.17Z"/>
        <path id="Wine_Glass_Liquid-2" data-name="Wine_Glass_Liquid" class="cls-1" d="M96.8,116.85c-.23.45-.14.32-.44.72-.81,1.13-2.82,3-4.9,3.11-.03,0-.59.06-.61.06-.86.06-.98-.1-2.12,1.2-.05.05-.11.14-.14.22l-4.01,12.31s-.42.79,1.21,2.28c.02.02.05.04.07.06.34.22,2.81,1.83,3.19,2.15,0,0,.68.74-.26.65l-12.65-4.19c-.63-.21.43-.69,1.07-.53.03,0,.8.1.83.11.01,0,.17.01.18.01.26.05,3.72.73,4.34-1.11l3.85-12.2c.02-.08.04-.15.04-.23.03-.35.27-1.39-.64-2.1,0,0-4.06-2.63-2.97-6.95,0-.03.01-.05.02-.08"/>
      </g>
      <g id="Left_Duck">
        <path id="Hand" class="cls-8" d="M75.91,120.86l.2.09c1.38.59,2.92.28,3.71-.66s2.19-1.86,4.59-1.54c.82.11,1.59.52,2.1,1.09,1.23,1.38,2.67,4.3-2.17,7.95,0,0-4.17,3.69-11.87-1.77-.79-.56-1.26-1.36-1.21-2.15s.31-1.8,1.18-2.64c.8-.77,2.25-.9,3.48-.38Z"/>
        <path id="Right_Leg" class="cls-8" d="M73.48,151.57s3.99,7.45,7.36,4.91l6.9-6.31s0,0,0,0c1.28-1.76,2.04-4.44-.88-5.82-1.34-.63-2.92-.41-3.97.63l-1.86,1.86c-.1.1-.12.1-.14.08l-4.09-3.6s-.05-.01-.07,0l-4.52,6.02s-.01.04,0,.05l1.28,2.19Z"/>
        <path id="Left_Leg" class="cls-8" d="M52.99,160.24s.51,9.07,4.95,8.12l9.59-3.03s0,0,0,0c2.04-1.14,4-3.4,1.78-6.08-1.02-1.22-2.66-1.73-4.15-1.18l-2.66.96c-.14.05-.16.04-.17.01l-2.36-5.37s-.04-.04-.07-.02l-7.14,3.82s-.03.03-.03.05l.26,2.71Z"/>
        <path id="Body" class="cls-5" d="M11.1,139.93c-.56-3.59,1.31-5.42,2.06-8.31.28-1.05.23-2.17-.11-3.2-.78-2.34-.35-8.01,4.24-7.16,3.23.59,6.59.15,9.31-1.71,2.49-1.7,6.2-2.23,10-.3,1.34.68,2.96.57,4.45.43,5.26-.49,17.83-3.59,13.19-17.67-.43-1.29-1.83-3.03-2.34-4.29-1.95-4.79-1.83-7.66,1.2-13.56,1.56-3.03,5.92-6.93,8.82-7.15,1.98-.15,7.13-3,14.2,7.94,1.23,1.9,1.17,5.67,1.02,7.46-.39,4.74-1.09,8.26-3.66,14.26-.26.61-.48,1.25-.62,1.9-.44,2.07-.92,6.22,1.12,9.81,0,0,6.43,12.26,4.3,24.73-.88,5.15-4.38,9.46-9.21,11.44-4.57,1.88-11.65,4.38-21.11,6.54-1.12.26-2.98.48-4.13.5-4.45.08-20.07,3.3-27.14-6.37-.25-.35-.51-.68-.8-.99-.9-.96-3.42-4.34-4.57-13.22-.05-.36-.15-.71-.2-1.06Z"/>
        <ellipse id="Eye_Right" class="cls-4" cx="70.11" cy="86.88" rx="3.47" ry="3.25" transform="translate(-30.49 135.29) rotate(-76.8)"/>
        <ellipse id="Eye_Right-2" data-name="Eye_Right" cx="71.37" cy="88.01" rx="1.79" ry="1.68" transform="translate(-30.61 137.4) rotate(-76.8)"/>
        <ellipse id="Eye_Left" class="cls-4" cx="60.81" cy="85.79" rx="3.47" ry="3.25" transform="translate(-36.61 125.4) rotate(-76.8)"/>
        <ellipse id="Eye_Left-2" data-name="Eye_Left" cx="62.1" cy="86.95" rx="1.79" ry="1.68" transform="translate(-36.73 127.55) rotate(-76.8)"/>
        <ellipse class="cls-5" cx="62.13" cy="75.99" rx="2.46" ry="5.26" transform="translate(-31.96 48.02) rotate(-34.17)"/>
        <ellipse class="cls-5" cx="66.02" cy="76.33" rx="5.26" ry="2.59" transform="translate(-16.08 135.02) rotate(-84.7)"/>
        <ellipse id="Mouth_Top" class="cls-8" cx="77.8" cy="95.16" rx="2.69" ry="7.37" transform="translate(-19.64 170.08) rotate(-88.29)"/>
        <ellipse id="Mouth_Bottom" class="cls-8" cx="76.86" cy="98.29" rx="2.69" ry="7.37" transform="translate(-47.12 112.37) rotate(-58.45)"/>
        <path id="Wing" class="cls-6" d="M27.62,132.34s1.97,6.92,7.5,3.68c0,0,6.59,14.1,16.21-2.48"/>
      </g>
      <g id="Right_Duck">
        <path id="Hand-2" data-name="Hand" class="cls-8" d="M122.68,123.03l-.2.09c-1.38.59-2.92.28-3.71-.66s-2.19-1.86-4.59-1.54c-.82.11-1.59.52-2.1,1.09-1.23,1.38-2.67,4.3,2.17,7.95,0,0,4.17,3.69,11.87-1.77.79-.56,1.26-1.36,1.21-2.15s-.31-1.8-1.18-2.64c-.8-.77-2.25-.9-3.48-.38Z"/>
        <path id="Right_Leg-2" data-name="Right_Leg" class="cls-8" d="M125.11,153.74s-3.99,7.45-7.36,4.91l-6.9-6.31s0,0,0,0c-1.28-1.76-2.04-4.44.88-5.82,1.34-.63,2.92-.41,3.97.63l1.86,1.86c.1.1.12.1.14.08l4.09-3.6s.05-.01.07,0l4.52,6.02s.01.04,0,.05l-1.28,2.19Z"/>
        <path id="Left_Leg-2" data-name="Left_Leg" class="cls-8" d="M145.6,162.41s-.51,9.07-4.95,8.12l-9.59-3.03s0,0,0,0c-2.04-1.14-4-3.4-1.78-6.08,1.02-1.22,2.66-1.73,4.15-1.18l2.66.96c.14.05.16.04.17.01l2.36-5.37s.04-.04.07-.02l7.14,3.82s.03.03.03.05l-.26,2.71Z"/>
        <path id="Body-2" data-name="Body" class="cls-5" d="M187.5,142.1c.56-3.59-1.31-5.42-2.06-8.31-.28-1.05-.23-2.17.11-3.2.78-2.34.35-8.01-4.24-7.16-3.23.59-6.59.15-9.31-1.71-2.49-1.7-6.2-2.23-10-.3-1.34.68-2.96.57-4.45.43-5.26-.49-17.83-3.59-13.19-17.67.43-1.29,1.83-3.03,2.34-4.29,1.95-4.79,1.83-7.66-1.2-13.56-1.56-3.03-5.92-6.93-8.82-7.15-1.98-.15-7.13-3-14.2,7.94-1.23,1.9-1.17,5.67-1.02,7.46.39,4.74,1.09,8.26,3.66,14.26.26.61.48,1.25.62,1.9.44,2.07.92,6.22-1.12,9.81,0,0-6.43,12.26-4.3,24.73.88,5.15,4.38,9.46,9.21,11.44,4.57,1.88,11.65,4.38,21.11,6.54,1.12.26,2.98.48,4.13.5,4.45.08,20.07,3.3,27.14-6.37.25-.35.51-.68.8-.99.9-.96,3.42-4.34,4.57-13.22.05-.36.15-.71.2-1.06Z"/>
        <ellipse id="Eye_Right-3" data-name="Eye_Right" class="cls-4" cx="128.49" cy="89.06" rx="3.25" ry="3.47" transform="translate(-16.94 31.7) rotate(-13.2)"/>
        <ellipse id="Eye_Right-4" data-name="Eye_Right" cx="127.22" cy="90.18" rx="1.68" ry="1.79" transform="translate(-17.23 31.44) rotate(-13.2)"/>
        <ellipse id="Eye_Left-3" data-name="Eye_Left" class="cls-4" cx="137.78" cy="87.96" rx="3.25" ry="3.47" transform="translate(-16.45 33.79) rotate(-13.2)"/>
        <ellipse id="Eye_Left-4" data-name="Eye_Left" cx="136.49" cy="89.12" rx="1.68" ry="1.79" transform="translate(-16.75 33.53) rotate(-13.2)"/>
        <ellipse class="cls-5" cx="136.46" cy="78.16" rx="5.26" ry="2.46" transform="translate(-4.86 147.16) rotate(-55.83)"/>
        <ellipse class="cls-5" cx="132.57" cy="78.5" rx="2.59" ry="5.26" transform="translate(-6.68 12.58) rotate(-5.3)"/>
        <ellipse id="Mouth_Top-2" data-name="Mouth_Top" class="cls-8" cx="120.79" cy="97.33" rx="7.37" ry="2.69" transform="translate(-2.85 3.65) rotate(-1.71)"/>
        <ellipse id="Mouth_Bottom-2" data-name="Mouth_Bottom" class="cls-8" cx="121.73" cy="100.46" rx="7.37" ry="2.69" transform="translate(-34.57 78.54) rotate(-31.55)"/>
        <path id="Wing-2" data-name="Wing" class="cls-6" d="M170.97,134.51s-1.97,6.92-7.5,3.68c0,0-6.59,14.1-16.21-2.48"/>
      </g>
      <g>
        <text class="cls-2" transform="translate(30.26 61.7) rotate(-10.49) scale(.91 1)"><tspan x="0" y="0">W</tspan></text>
        <text class="cls-2" transform="translate(47.23 58.63) rotate(-7.91) scale(.91 1)"><tspan x="0" y="0">h</tspan></text>
        <text class="cls-2" transform="translate(58.53 57.09) rotate(-6.43) scale(.91 1)"><tspan x="0" y="0">i</tspan></text>
        <text class="cls-2" transform="translate(64.75 56.35) rotate(-4.93) scale(.91 1)"><tspan x="0" y="0">n</tspan></text>
        <text class="cls-2" transform="translate(76.4 55.36) rotate(-3.09) scale(.91 1)"><tspan x="0" y="0">e</tspan></text>
        <text class="cls-2" transform="translate(86.37 54.85) rotate(-1.88) scale(.91 1)"><tspan x="0" y="0"> </tspan></text>
        <text class="cls-2" transform="translate(90.32 54.71) rotate(-.89) scale(.91 1)"><tspan x="0" y="0">t</tspan></text>
        <text class="cls-2" transform="translate(97.34 54.57) rotate(.72) scale(.91 1)"><tspan x="0" y="0">o</tspan></text>
        <text class="cls-2" transform="translate(107.75 54.71) rotate(2.72) scale(.91 1)"><tspan x="0" y="0">g</tspan></text>
        <text class="cls-2" transform="translate(117.85 55.18) rotate(4.8) scale(.91 1)"><tspan x="0" y="0">e</tspan></text>
        <text class="cls-2" transform="translate(127.79 56.04) rotate(6.66) scale(.91 1)"><tspan x="0" y="0">t</tspan></text>
        <text class="cls-2" transform="translate(134.75 56.81) rotate(8.8) scale(.91 1)"><tspan x="0" y="0">h</tspan></text>
        <text class="cls-2" transform="translate(145.97 58.55) rotate(11.46) scale(.91 1)"><tspan x="0" y="0">e</tspan></text>
        <text class="cls-2" transform="translate(155.69 60.53) rotate(13.97) scale(.91 1)"><tspan x="0" y="0">r</tspan></text>
        <text class="cls-2" transform="translate(164.15 62.64) rotate(16.34) scale(.91 1)"><tspan x="0" y="0">?</tspan></text>
      </g>
    </g>
  </g>
</svg>