<svg width="215" height="66" viewBox="0 0 215 66" fill="none" xmlns="http://www.w3.org/2000/svg">
<g clip-path="url(#clip0_208_453)">
<path d="M166.137 44.0521C166.137 44.0521 169 40.4693 167.623 34.0277C167.103 31.5985 165.943 29.3603 164.342 27.4774C161.442 24.0723 155.793 17.6386 153.261 16.1589C152.869 15.9308 152.391 15.9467 152.015 16.2013C151.022 16.8722 149.102 18.6835 148.979 22.733C148.95 23.709 147.848 24.2155 147.093 23.6135C146.761 23.3483 145.922 21.004 145.287 20.9377C144.441 20.8475 144.111 21.5556 143.887 21.7969C142.745 23.0221 137.692 27.5304 137.01 38.5174C137.01 38.5174 136.035 49.0961 151.916 49.7882C151.916 49.7882 162.144 50.2815 166.139 44.0521H166.137Z" fill="#FF814A"/>
<path d="M146.581 45.8536L146.568 46.1241C146.549 46.4742 146.335 46.7791 146.016 46.917C145.332 47.2141 144.37 47.8611 145.708 48.845C145.747 48.8742 145.789 48.9007 145.834 48.9219C146.095 49.0519 147.043 49.4258 148.472 48.8662C148.624 48.8079 148.752 48.7045 148.851 48.5745C149.123 48.2139 149.546 47.3785 149.35 45.8006C149.295 45.3577 148.922 45.0209 148.483 45.0129L147.498 44.9917C147.014 44.9811 146.61 45.363 146.586 45.8536H146.581Z" fill="#FF814A"/>
<path d="M157.178 46.0498L157.149 46.3203C157.113 46.6704 157.277 47.0045 157.572 47.1902C158.202 47.5906 159.051 48.3862 157.578 49.142C157.536 49.1632 157.489 49.1844 157.442 49.1977C157.165 49.2852 156.169 49.5027 154.845 48.7204C154.706 48.6381 154.594 48.5162 154.518 48.3729C154.307 47.9752 154.017 47.0788 154.455 45.5539C154.578 45.1243 154.999 44.8538 155.435 44.9148L156.412 45.0501C156.891 45.1164 157.233 45.5592 157.181 46.0472L157.178 46.0498Z" fill="#FF814A"/>
<path d="M145.849 35.6643C143.32 37.4039 139.534 41.35 144.561 47.4522C145.17 48.1921 145.938 48.7781 146.811 49.16C149.4 50.2924 155.869 51.324 160.514 48.3777C161.361 47.842 162.487 44.779 162.351 43.3973C162.108 40.931 161.544 36.9478 156.661 34.5982C155.127 33.8609 155.143 33.312 154.905 32.1584C154.638 30.8722 154.853 30.4028 155.247 28.6313C155.482 27.5838 155.221 25.0432 154.719 24.0991C154.189 23.0993 152.31 22.2852 150.518 22.7837C149.126 23.1709 148.674 24.3723 148.141 25.7327C147.485 27.4034 147.561 30.0289 147.493 32.6066C147.461 33.8318 146.847 34.9748 145.849 35.6616V35.6643Z" fill="#FFC64A"/>
<path d="M149.619 27.0428C149.078 27.0428 148.64 26.5678 148.64 25.982C148.64 25.3961 149.078 24.9212 149.619 24.9212C150.161 24.9212 150.599 25.3961 150.599 25.982C150.599 26.5678 150.161 27.0428 149.619 27.0428Z" fill="white"/>
<path d="M149.797 27.0666C149.519 27.0666 149.293 26.822 149.293 26.5203C149.293 26.2186 149.519 25.974 149.797 25.974C150.076 25.974 150.301 26.2186 150.301 26.5203C150.301 26.822 150.076 27.0666 149.797 27.0666Z" fill="black"/>
<path d="M153.374 27.3981C152.833 27.3981 152.394 26.9232 152.394 26.3373C152.394 25.7515 152.833 25.2766 153.374 25.2766C153.915 25.2766 154.354 25.7515 154.354 26.3373C154.354 26.9232 153.915 27.3981 153.374 27.3981Z" fill="white"/>
<path d="M153.013 27.2814C152.735 27.2814 152.509 27.0369 152.509 26.7351C152.509 26.4334 152.735 26.1888 153.013 26.1888C153.292 26.1888 153.518 26.4334 153.518 26.7351C153.518 27.0369 153.292 27.2814 153.013 27.2814Z" fill="black"/>
<path d="M152.077 23.9739C151.695 23.8267 151.638 23.0337 151.949 22.2026C152.26 21.3715 152.821 20.8171 153.203 20.9643C153.585 21.1115 153.642 21.9045 153.331 22.7356C153.02 23.5667 152.458 24.1211 152.077 23.9739Z" fill="#FFC64A"/>
<path d="M150.787 23.0978C150.506 22.2556 150.609 21.4595 151.017 21.3198C151.424 21.1801 151.982 21.7496 152.262 22.5919C152.542 23.4341 152.44 24.2301 152.032 24.3699C151.625 24.5096 151.067 23.9401 150.787 23.0978Z" fill="#FFC64A"/>
<path d="M149.491 29.4735C149.411 29.1586 150.036 28.7228 150.887 28.5001C151.738 28.2774 152.492 28.3521 152.572 28.6669C152.652 28.9818 152.027 29.4176 151.177 29.6403C150.326 29.863 149.571 29.7883 149.491 29.4735Z" fill="#FF814A"/>
<path d="M150.875 28.8225C150.045 28.5302 149.457 28.0442 149.562 27.737C149.667 27.4298 150.425 27.4177 151.255 27.7101C152.085 28.0024 152.673 28.4883 152.568 28.7955C152.463 29.1027 151.705 29.1148 150.875 28.8225Z" fill="#FF814A"/>
<path d="M152.453 25.0389C152.398 24.9211 152.586 24.7139 152.873 24.5761C153.16 24.4382 153.437 24.4221 153.492 24.5399C153.547 24.6577 153.359 24.8649 153.072 25.0028C152.785 25.1406 152.508 25.1567 152.453 25.0389Z" fill="black"/>
<path d="M150.093 24.8124C149.806 24.6746 149.618 24.4673 149.673 24.3495C149.728 24.2317 150.005 24.2479 150.292 24.3857C150.579 24.5235 150.767 24.7307 150.712 24.8485C150.657 24.9664 150.38 24.9502 150.093 24.8124Z" fill="black"/>
</g>
<path d="M1.60938 51.0547C1.42188 50.4609 1.25781 49.7812 1.11719 49.0156C0.976562 48.2344 0.90625 47.4062 0.90625 46.5312C0.90625 45.4844 1.04688 44.4297 1.32812 43.3672C1.625 42.2891 2.14844 41.3047 2.89844 40.4141C3.32031 40.1953 3.82812 40.0156 4.42188 39.875C5.01562 39.7344 5.64844 39.6641 6.32031 39.6641C6.83594 39.6641 7.35938 39.7109 7.89062 39.8047C8.42188 39.8984 8.9375 40.0547 9.4375 40.2734C9.45312 41.2266 9.46875 42.1953 9.48438 43.1797C9.5 44.1641 9.55469 45.1875 9.64844 46.25C9.74219 47.3125 9.89844 48.4297 10.1172 49.6016C10.3359 50.7578 10.6484 51.9844 11.0547 53.2812C11.2734 53.3438 11.5078 53.3828 11.7578 53.3984C12.0078 53.4141 12.2578 53.4219 12.5078 53.4219C12.8672 53.4219 13.2031 53.4062 13.5156 53.375C13.8438 53.3594 14.1094 53.3672 14.3125 53.3984C14.3438 52.7734 14.3594 52.0625 14.3594 51.2656C14.375 50.4688 14.3828 49.6016 14.3828 48.6641C14.3828 46.7422 14.3594 44.625 14.3125 42.3125C14.2812 39.9844 14.2266 37.6406 14.1484 35.2812C14.1016 33.7188 14.0625 32.1719 14.0312 30.6406C14 29.0938 13.9844 27.6484 13.9844 26.3047C13.9844 25.2891 13.9922 24.3672 14.0078 23.5391C14.0391 22.7109 14.0781 22.0078 14.125 21.4297C13.5156 21.4609 12.8516 21.4922 12.1328 21.5234C11.4141 21.5547 10.7109 21.6016 10.0234 21.6641L9.95312 28.25C9.5 28.3594 9.07031 28.4531 8.66406 28.5312C8.27344 28.6094 7.88281 28.6719 7.49219 28.7188C7.11719 28.7656 6.73438 28.7969 6.34375 28.8125C5.96875 28.8281 5.57031 28.8281 5.14844 28.8125C4.86719 28.5781 4.5625 28.1797 4.23438 27.6172C3.90625 27.0547 3.60156 26.3984 3.32031 25.6484C3.03906 24.8984 2.80469 24.1016 2.61719 23.2578C2.42969 22.3984 2.33594 21.5703 2.33594 20.7734C2.33594 19.3672 2.58594 18.1953 3.08594 17.2578C3.58594 16.3203 4.35156 15.6406 5.38281 15.2188C5.96094 14.9063 6.61719 14.6797 7.35156 14.5391C8.10156 14.3984 8.92969 14.2734 9.83594 14.1641C10.9609 14.0234 12.2109 13.9531 13.5859 13.9531C15.0859 13.9531 16.6172 14.0234 18.1797 14.1641C19.7422 14.3047 21.1875 14.4844 22.5156 14.7031L23.7578 16.1562C23.7422 16.6875 23.7188 17.3203 23.6875 18.0547C23.6719 18.7891 23.6484 19.5625 23.6172 20.375C23.6016 21.1875 23.5781 22.0156 23.5469 22.8594C23.5156 23.6875 23.4844 24.4844 23.4531 25.25C23.4375 26 23.4141 26.6875 23.3828 27.3125C23.3672 27.9375 23.3516 28.4375 23.3359 28.8125C23.3047 29.5938 23.2656 30.6172 23.2188 31.8828C23.1719 33.1328 23.125 34.5078 23.0781 36.0078C23.0312 37.4922 22.9766 39.0391 22.9141 40.6484C22.8516 42.2422 22.7891 43.7734 22.7266 45.2422C22.6641 46.6953 22.5938 48.0234 22.5156 49.2266C22.4531 50.4141 22.3828 51.3516 22.3047 52.0391C22.1797 53.1172 22 54.1328 21.7656 55.0859C21.5469 56.0391 21.1641 56.8906 20.6172 57.6406C19.9453 58.5312 19.0547 59.1641 17.9453 59.5391C16.8359 59.9297 15.6406 60.125 14.3594 60.125C12.7031 60.125 11.2109 59.9766 9.88281 59.6797C8.57031 59.3828 7.39062 58.8828 6.34375 58.1797C5.3125 57.4922 4.40625 56.5625 3.625 55.3906C2.84375 54.2344 2.17188 52.7891 1.60938 51.0547ZM29.8516 41.7734C29.8516 39.7734 29.8828 37.8047 29.9453 35.8672C30.0078 33.9297 30.1328 32.0234 30.3203 30.1484L27.8359 29.7969C27.7109 29.2969 27.6094 28.875 27.5312 28.5312C27.4531 28.1719 27.3906 27.8203 27.3438 27.4766C27.2969 27.1328 27.2578 26.7656 27.2266 26.375C27.2109 25.9688 27.2031 25.4688 27.2031 24.875C28.0938 24.0312 29.0625 23.3828 30.1094 22.9297C31.1719 22.4609 32.3906 22.2266 33.7656 22.2266C37.7969 22.2266 39.8125 24.25 39.8125 28.2969C39.8125 29.2969 39.7266 30.4375 39.5547 31.7188C39.3984 32.9844 39.2109 34.2812 38.9922 35.6094C38.7734 36.9375 38.5547 38.2266 38.3359 39.4766C38.1328 40.7266 37.9844 41.8281 37.8906 42.7812C38.1562 43.0625 38.4844 43.2578 38.875 43.3672C39.0156 43.3672 39.2969 43.1406 39.7188 42.6875C40.1562 42.2188 40.6484 41.6406 41.1953 40.9531C41.7422 40.25 42.2891 39.4922 42.8359 38.6797C43.3984 37.8516 43.8828 37.0625 44.2891 36.3125C44.3516 35.2812 44.4219 34.2578 44.5 33.2422C44.5781 32.2109 44.6797 31.1797 44.8047 30.1484L42.3438 29.6562C42.25 29.2656 42.1641 28.9062 42.0859 28.5781C42.0234 28.2344 41.9688 27.9062 41.9219 27.5938C41.875 27.2812 41.8438 26.9766 41.8281 26.6797C41.8125 26.3672 41.8047 26.0391 41.8047 25.6953C41.8047 25.5859 41.8047 25.4844 41.8047 25.3906C41.8203 25.2812 41.8281 25.1641 41.8281 25.0391C42.0625 24.7578 42.375 24.4531 42.7656 24.125C43.1562 23.7969 43.6172 23.4922 44.1484 23.2109C44.6953 22.9297 45.3125 22.6953 46 22.5078C46.6875 22.3203 47.4297 22.2266 48.2266 22.2266C52.2578 22.2266 54.2734 24.25 54.2734 28.2969C54.2734 29.2188 54.1797 30.3125 53.9922 31.5781C53.8047 32.8281 53.5703 34.125 53.2891 35.4688C53.0234 36.8125 52.7266 38.1328 52.3984 39.4297C52.0859 40.7266 51.7969 41.8828 51.5312 42.8984L54.2266 41.7266C54.6016 42.1328 54.9766 42.6797 55.3516 43.3672C55.7422 44.0547 55.9922 44.8984 56.1016 45.8984C55.9609 46.1797 55.6719 46.5781 55.2344 47.0938C54.8125 47.5938 54.2656 48.1016 53.5938 48.6172C52.9375 49.1172 52.1875 49.5547 51.3438 49.9297C50.5 50.2891 49.6016 50.4688 48.6484 50.4688C47.9766 50.4688 47.3828 50.3594 46.8672 50.1406C46.3672 49.9375 45.9453 49.6484 45.6016 49.2734C45.2734 48.8984 45.0234 48.4609 44.8516 47.9609C44.6953 47.4609 44.6172 46.9219 44.6172 46.3438C44.6172 46.1875 44.6406 45.9297 44.6875 45.5703C44.7344 45.1953 44.7891 44.8047 44.8516 44.3984C44.9297 43.9922 45.0078 43.6094 45.0859 43.25C45.1641 42.875 45.2266 42.5938 45.2734 42.4062L44.6172 42.1953C44.2109 43.6016 43.7344 44.8203 43.1875 45.8516C42.6406 46.8828 42.0312 47.7422 41.3594 48.4297C40.6875 49.1172 39.9609 49.6328 39.1797 49.9766C38.3984 50.3047 37.5781 50.4688 36.7188 50.4688C35.3438 50.4688 34.2109 50.2109 33.3203 49.6953C32.4297 49.1797 31.7266 48.5078 31.2109 47.6797C30.6953 46.8516 30.3359 45.9219 30.1328 44.8906C29.9453 43.8594 29.8516 42.8203 29.8516 41.7734ZM58.4688 46.6719C58.4688 46.2344 58.4922 45.8281 58.5391 45.4531C58.5859 45.0625 58.6719 44.6797 58.7969 44.3047C58.9375 43.9141 59.125 43.5156 59.3594 43.1094C59.5938 42.6875 59.9062 42.2266 60.2969 41.7266C61 42.0078 61.7188 42.2891 62.4531 42.5703C63.1875 42.8516 63.9297 43.1094 64.6797 43.3438C65.4297 43.5625 66.1875 43.7422 66.9531 43.8828C67.7188 44.0234 68.5 44.0938 69.2969 44.0938C69.7344 44.0938 70.0469 44.0547 70.2344 43.9766C70.2812 43.9141 70.3203 43.8203 70.3516 43.6953C70.3984 43.5547 70.4219 43.4141 70.4219 43.2734C70.4219 43.1484 70.3828 43.0234 70.3047 42.8984C70.2422 42.7578 70.1016 42.625 69.8828 42.5C69.0234 42.0312 68.1328 41.5938 67.2109 41.1875C66.3047 40.7656 65.4141 40.3359 64.5391 39.8984C63.6641 39.4453 62.8359 38.9531 62.0547 38.4219C61.2891 37.8906 60.6094 37.2812 60.0156 36.5938C59.4375 35.8906 58.9766 35.0859 58.6328 34.1797C58.2891 33.2734 58.1172 32.2109 58.1172 30.9922C58.1172 29.7734 58.2891 28.6328 58.6328 27.5703C58.9922 26.5078 59.5625 25.5781 60.3438 24.7812C61.125 23.9844 62.1406 23.3594 63.3906 22.9062C64.6406 22.4531 66.1719 22.2266 67.9844 22.2266C68.3438 22.2266 68.8828 22.2344 69.6016 22.25C70.3203 22.2656 71.125 22.3281 72.0156 22.4375C72.9062 22.5312 73.8281 22.6875 74.7812 22.9062C75.75 23.125 76.6562 23.4297 77.5 23.8203C77.5625 24.0703 77.6016 24.3438 77.6172 24.6406C77.6484 24.9219 77.6641 25.2188 77.6641 25.5312C77.6641 26.1562 77.6094 26.8125 77.5 27.5C77.4062 28.1719 77.2656 28.8359 77.0781 29.4922C76.8906 30.1328 76.6562 30.7266 76.375 31.2734C76.1094 31.8047 75.8047 32.2422 75.4609 32.5859C74.7266 32.3516 73.9766 32.0859 73.2109 31.7891C72.4453 31.4766 71.6875 31.1719 70.9375 30.875C70.2031 30.5781 69.4922 30.3047 68.8047 30.0547C68.1328 29.8047 67.5156 29.625 66.9531 29.5156C66.6406 29.5938 66.3906 29.7812 66.2031 30.0781C66.0156 30.3594 65.9219 30.6953 65.9219 31.0859C65.9219 31.3672 65.9844 31.6094 66.1094 31.8125C66.25 32 66.4219 32.1719 66.625 32.3281C66.8438 32.4688 67.0703 32.6016 67.3047 32.7266C67.5547 32.8359 67.7969 32.9375 68.0312 33.0312C68.9844 33.4375 70.0156 33.875 71.125 34.3438C72.25 34.7969 73.2969 35.3516 74.2656 36.0078C75.3906 36.7891 76.3125 37.7031 77.0312 38.75C77.7656 39.7969 78.1328 40.9922 78.1328 42.3359C78.1328 43.2578 77.9922 44.1094 77.7109 44.8906C77.4297 45.6562 77.0469 46.3516 76.5625 46.9766C76.0938 47.5859 75.5312 48.1172 74.875 48.5703C74.2344 49.0234 73.5547 49.3828 72.8359 49.6484C71.9922 49.9609 71.0938 50.1797 70.1406 50.3047C69.1875 50.4297 68.0781 50.4922 66.8125 50.4922C66.2344 50.4922 65.5625 50.4375 64.7969 50.3281C64.0312 50.2188 63.2578 50.0234 62.4766 49.7422C61.6953 49.4609 60.9453 49.0781 60.2266 48.5938C59.5234 48.0938 58.9375 47.4531 58.4688 46.6719ZM82.8203 44.7734C82.7734 43.9453 82.7344 42.875 82.7031 41.5625C82.6719 40.2344 82.6562 38.7344 82.6562 37.0625C82.6562 36 82.6641 34.8906 82.6797 33.7344C82.6953 32.5781 82.7266 31.3672 82.7734 30.1016L80.2188 29.6562C80.125 29.2656 80.0391 28.9062 79.9609 28.5781C79.8984 28.2344 79.8438 27.9062 79.7969 27.5938C79.75 27.2812 79.7188 26.9766 79.7031 26.6797C79.6875 26.3672 79.6797 26.0391 79.6797 25.6953C79.6797 25.5859 79.6953 25.4219 79.7266 25.2031C79.7734 24.9844 79.7969 24.8125 79.7969 24.6875L83.1953 23.9375C83.2266 23.4844 83.2891 22.9766 83.3828 22.4141C83.4766 21.8359 83.5859 21.2734 83.7109 20.7266C83.8359 20.1641 83.9766 19.6406 84.1328 19.1562C84.2891 18.6562 84.4531 18.2578 84.625 17.9609C85.1406 17.5547 85.7578 17.2656 86.4766 17.0938C87.1953 16.9219 87.9375 16.8359 88.7031 16.8359C89.4062 16.8359 90.0781 16.9062 90.7188 17.0469C91.3594 17.1719 91.9219 17.3438 92.4062 17.5625C92.4531 18.1094 92.4766 18.7188 92.4766 19.3906C92.4766 20.0156 92.4609 20.6562 92.4297 21.3125C92.3984 21.9688 92.3594 22.6016 92.3125 23.2109L96.4375 22.4609C96.75 23.0078 96.9688 23.5547 97.0938 24.1016C97.2344 24.6484 97.3047 25.1875 97.3047 25.7188C97.3047 26.1875 97.2656 26.6484 97.1875 27.1016C97.1094 27.5391 97.0078 27.9453 96.8828 28.3203C96.7734 28.6953 96.6562 29.0391 96.5312 29.3516C96.4062 29.6641 96.2969 29.9297 96.2031 30.1484C95.8594 30.2109 95.3203 30.2734 94.5859 30.3359C93.8672 30.3984 92.9922 30.4453 91.9609 30.4766C91.8672 31.5547 91.7422 32.6953 91.5859 33.8984C91.4453 35.1016 91.2969 36.2578 91.1406 37.3672C91 38.4609 90.8594 39.4609 90.7188 40.3672C90.5781 41.2734 90.4688 41.9844 90.3906 42.5L90.4375 42.5469L95.9453 40.8359C96.6016 41.3828 97.0859 42.0469 97.3984 42.8281C97.7109 43.5938 97.9219 44.3984 98.0312 45.2422C97.1875 46.2266 96.2344 47.1016 95.1719 47.8672C94.7188 48.1953 94.2188 48.5156 93.6719 48.8281C93.125 49.1406 92.5391 49.4219 91.9141 49.6719C91.3047 49.9062 90.6484 50.0938 89.9453 50.2344C89.2578 50.3906 88.5391 50.4688 87.7891 50.4688C87.1797 50.4688 86.5859 50.3828 86.0078 50.2109C85.4453 50.0391 84.9375 49.7422 84.4844 49.3203C84.0312 48.8828 83.6562 48.2969 83.3594 47.5625C83.0625 46.8281 82.8828 45.8984 82.8203 44.7734ZM118.164 38.9375C117.836 38.4219 117.445 37.7734 116.992 36.9922C116.539 36.2109 116.055 35.3516 115.539 34.4141C115.023 33.4609 114.492 32.4453 113.945 31.3672C113.414 30.2891 112.898 29.1953 112.398 28.0859C111.898 26.9609 111.43 25.8438 110.992 24.7344C110.555 23.625 110.18 22.5625 109.867 21.5469L106.305 21.0547C106.195 20.6016 106.102 20.1875 106.023 19.8125C105.945 19.4375 105.883 19.0781 105.836 18.7344C105.789 18.375 105.758 18.0156 105.742 17.6562C105.727 17.2969 105.727 16.9062 105.742 16.4844C105.977 16.2031 106.352 15.8984 106.867 15.5703C107.367 15.2422 107.961 14.9375 108.648 14.6562C109.336 14.375 110.078 14.1406 110.875 13.9531C111.688 13.7656 112.492 13.6719 113.289 13.6719C116.195 13.6719 118.016 14.7656 118.75 16.9531C118.859 17.2188 119.023 17.6562 119.242 18.2656C119.477 18.8594 119.734 19.5781 120.016 20.4219C120.297 21.25 120.602 22.1797 120.93 23.2109C121.258 24.2422 121.578 25.3203 121.891 26.4453C122.203 27.5703 122.5 28.7188 122.781 29.8906C123.062 31.0625 123.305 32.2031 123.508 33.3125C123.961 32.4062 124.43 31.4141 124.914 30.3359C125.398 29.2422 125.859 28.1641 126.297 27.1016C126.734 26.0234 127.117 25 127.445 24.0312C127.789 23.0469 128.047 22.2031 128.219 21.5H128.172L125.312 21.0078C125.203 20.5547 125.109 20.1406 125.031 19.7656C124.953 19.3906 124.891 19.0312 124.844 18.6875C124.797 18.3281 124.766 17.9688 124.75 17.6094C124.734 17.25 124.734 16.8594 124.75 16.4375C124.984 16.1562 125.352 15.8516 125.852 15.5234C126.367 15.1953 126.969 14.8906 127.656 14.6094C128.344 14.3281 129.086 14.0938 129.883 13.9062C130.695 13.7188 131.5 13.625 132.297 13.625C135.297 13.625 137.133 14.7812 137.805 17.0938C137.898 17.4062 137.961 17.7031 137.992 17.9844C138.039 18.2656 138.062 18.5391 138.062 18.8047C138.062 19.7266 137.844 20.7734 137.406 21.9453C136.984 23.1172 136.43 24.3359 135.742 25.6016C135.055 26.8672 134.273 28.1484 133.398 29.4453C132.539 30.7266 131.68 31.9375 130.82 33.0781C129.977 34.2188 129.172 35.25 128.406 36.1719C127.641 37.0938 127.008 37.8281 126.508 38.375C126.367 39.2188 126.227 40.0391 126.086 40.8359C125.945 41.6172 125.789 42.375 125.617 43.1094L125.664 43.1562L129.133 41.7031C129.773 42.25 130.266 42.875 130.609 43.5781C130.953 44.2656 131.172 45.0312 131.266 45.875C130.656 46.7344 129.945 47.5 129.133 48.1719C128.789 48.4531 128.406 48.7344 127.984 49.0156C127.562 49.2812 127.102 49.5234 126.602 49.7422C126.117 49.9453 125.594 50.1094 125.031 50.2344C124.469 50.375 123.875 50.4453 123.25 50.4453C122.578 50.4453 121.93 50.3594 121.305 50.1875C120.695 50.0156 120.148 49.7188 119.664 49.2969C119.18 48.8594 118.797 48.2734 118.516 47.5391C118.234 46.8047 118.102 45.875 118.117 44.75L118.164 38.9375ZM172.586 53.1406C172.586 51.4062 172.586 49.5625 172.586 47.6094C172.602 45.6406 172.625 43.6641 172.656 41.6797C172.703 39.6797 172.758 37.7109 172.82 35.7734C172.898 33.8359 173.008 32.0156 173.148 30.3125L170.594 29.8906C170.422 29.3594 170.281 28.8672 170.172 28.4141C170.062 27.9609 169.977 27.5156 169.914 27.0781C169.867 26.625 169.836 26.1641 169.82 25.6953C169.805 25.2109 169.797 24.6719 169.797 24.0781C169.938 23.9531 170.18 23.7891 170.523 23.5859C170.883 23.3672 171.312 23.1641 171.812 22.9766C172.312 22.7734 172.867 22.6016 173.477 22.4609C174.102 22.3047 174.758 22.2266 175.445 22.2266C176.43 22.2266 177.25 22.3359 177.906 22.5547C178.578 22.7734 179.117 23.0938 179.523 23.5156C179.93 23.9375 180.219 24.4531 180.391 25.0625C180.562 25.6562 180.648 26.3359 180.648 27.1016C180.648 27.6484 180.609 28.2266 180.531 28.8359C180.469 29.4453 180.375 30.0938 180.25 30.7812C180.094 31.6562 179.969 32.3516 179.875 32.8672C179.797 33.3672 179.734 33.7578 179.688 34.0391C179.641 34.3047 179.609 34.4844 179.594 34.5781C179.594 34.6562 179.594 34.6953 179.594 34.6953C179.594 34.7734 179.648 34.8516 179.758 34.9297C179.867 34.9922 179.984 35.0234 180.109 35.0234C180.25 35.0234 180.344 34.9688 180.391 34.8594C180.516 34.4062 180.633 33.9375 180.742 33.4531C180.867 32.9531 181 32.4453 181.141 31.9297C181.484 30.6172 181.922 29.375 182.453 28.2031C183 27.0156 183.648 25.9844 184.398 25.1094C185.148 24.2188 186.008 23.5156 186.977 23C187.961 22.4844 189.062 22.2266 190.281 22.2266C191.641 22.2266 192.781 22.4609 193.703 22.9297C194.625 23.3828 195.375 23.9844 195.953 24.7344C196.531 25.4844 196.945 26.3438 197.195 27.3125C197.445 28.2656 197.57 29.25 197.57 30.2656C197.57 31.25 197.516 32.3125 197.406 33.4531C197.312 34.5781 197.172 35.7266 196.984 36.8984C196.812 38.0703 196.602 39.2422 196.352 40.4141C196.102 41.5703 195.82 42.6797 195.508 43.7422C195.211 44.7422 194.812 45.6562 194.312 46.4844C193.828 47.3125 193.234 48.0234 192.531 48.6172C191.844 49.2109 191.055 49.6719 190.164 50C189.273 50.3281 188.281 50.4922 187.188 50.4922C186.828 50.4922 186.438 50.4688 186.016 50.4219C185.609 50.375 185.141 50.2891 184.609 50.1641C184.094 50.0391 183.508 49.875 182.852 49.6719C182.195 49.4531 181.453 49.1875 180.625 48.875L179.688 53.3047L179.734 53.3516L184.211 53.0469C184.414 53.3281 184.578 53.6641 184.703 54.0547C184.828 54.4453 184.93 54.8281 185.008 55.2031C185.102 55.5938 185.172 55.9609 185.219 56.3047C185.266 56.6484 185.305 56.9219 185.336 57.125C184.773 57.6875 184.109 58.1875 183.344 58.625C182.688 59 181.883 59.3438 180.93 59.6562C179.977 59.9688 178.875 60.125 177.625 60.125C176.969 60.125 176.336 60.0469 175.727 59.8906C175.117 59.7344 174.578 59.4531 174.109 59.0469C173.656 58.6406 173.289 58.0859 173.008 57.3828C172.727 56.6953 172.586 55.8203 172.586 54.7578V53.1406ZM181.188 42.2422C181.719 42.6172 182.297 42.9453 182.922 43.2266C183.562 43.4922 184.164 43.7109 184.727 43.8828C185.289 44.0547 185.789 44.1719 186.227 44.2344C186.664 44.2969 186.953 44.2969 187.094 44.2344C187.281 43.5625 187.43 42.8125 187.539 41.9844C187.648 41.1562 187.727 40.3203 187.773 39.4766C187.836 38.6172 187.875 37.7734 187.891 36.9453C187.922 36.1016 187.938 35.3359 187.938 34.6484C187.938 34.3359 187.93 34.0312 187.914 33.7344C187.898 33.4219 187.867 33.1328 187.82 32.8672C187.461 32.4141 186.945 32.1875 186.273 32.1875C186.195 32.25 186.039 32.4688 185.805 32.8438C185.57 33.2031 185.297 33.6562 184.984 34.2031C184.672 34.7344 184.328 35.3281 183.953 35.9844C183.594 36.625 183.234 37.2656 182.875 37.9062C182.531 38.5469 182.211 39.1484 181.914 39.7109C181.617 40.2734 181.375 40.7422 181.188 41.1172V42.2422ZM201.016 14.1406C201.406 13.875 201.898 13.6094 202.492 13.3438C203.102 13.0781 203.766 12.8438 204.484 12.6406C205.203 12.4375 205.945 12.2734 206.711 12.1484C207.492 12.0234 208.242 11.9609 208.961 11.9609C209.508 11.9609 210.023 12.0078 210.508 12.1016C210.992 12.1797 211.43 12.3125 211.82 12.5C211.82 13.9062 211.766 15.5312 211.656 17.375C211.562 19.2031 211.43 21.1406 211.258 23.1875C211.102 25.2344 210.922 27.3359 210.719 29.4922C210.531 31.6484 210.336 33.75 210.133 35.7969C209.789 36.375 209.273 36.8281 208.586 37.1562C207.898 37.4844 207.164 37.6484 206.383 37.6484C205.805 37.6484 205.242 37.5547 204.695 37.3672C204.148 37.1641 203.664 36.8516 203.242 36.4297L201.016 14.1406ZM200.805 45.3359C200.805 44.7266 200.906 44.1406 201.109 43.5781C201.312 43.0156 201.641 42.5156 202.094 42.0781C202.562 41.625 203.172 41.2656 203.922 41C204.688 40.7344 205.625 40.6016 206.734 40.6016C207.844 40.6016 208.773 40.7344 209.523 41C210.289 41.2656 210.898 41.625 211.352 42.0781C211.82 42.5156 212.156 43.0156 212.359 43.5781C212.562 44.1406 212.664 44.7266 212.664 45.3359C212.664 46.0391 212.492 46.7031 212.148 47.3281C211.82 47.9375 211.375 48.4766 210.812 48.9453C210.266 49.4141 209.633 49.7812 208.914 50.0469C208.211 50.3281 207.484 50.4688 206.734 50.4688C205.984 50.4688 205.25 50.3281 204.531 50.0469C203.828 49.7812 203.195 49.4141 202.633 48.9453C202.086 48.4766 201.641 47.9375 201.297 47.3281C200.969 46.7031 200.805 46.0391 200.805 45.3359Z" fill="#8D5F4A"/>
<defs>
<clipPath id="clip0_208_453">
<rect width="31" height="37" fill="white" transform="matrix(-1 0 0 1 168 16)"/>
</clipPath>
</defs>
</svg>
