<svg width="260" height="66" viewBox="0 0 260 66" fill="none" xmlns="http://www.w3.org/2000/svg">
<g clip-path="url(#clip0_208_453)">
<path d="M188.137 44.0521C188.137 44.0521 191 40.4693 189.623 34.0277C189.103 31.5985 187.943 29.3603 186.342 27.4774C183.442 24.0723 177.793 17.6386 175.261 16.1589C174.869 15.9308 174.391 15.9467 174.015 16.2013C173.022 16.8722 171.102 18.6835 170.979 22.733C170.95 23.709 169.848 24.2155 169.093 23.6135C168.761 23.3483 167.922 21.004 167.287 20.9377C166.441 20.8475 166.111 21.5556 165.887 21.7969C164.745 23.0221 159.692 27.5304 159.01 38.5174C159.01 38.5174 158.035 49.0961 173.916 49.7882C173.916 49.7882 184.144 50.2815 188.139 44.0521H188.137Z" fill="#FF814A"/>
<path d="M168.581 45.8536L168.568 46.1241C168.549 46.4742 168.335 46.7791 168.016 46.917C167.332 47.2141 166.37 47.8611 167.708 48.845C167.747 48.8742 167.789 48.9007 167.834 48.9219C168.095 49.0519 169.043 49.4258 170.472 48.8662C170.624 48.8079 170.752 48.7045 170.851 48.5745C171.123 48.2139 171.546 47.3785 171.35 45.8006C171.295 45.3577 170.922 45.0209 170.483 45.0129L169.498 44.9917C169.014 44.9811 168.61 45.363 168.586 45.8536H168.581Z" fill="#FF814A"/>
<path d="M179.178 46.0498L179.149 46.3203C179.113 46.6704 179.277 47.0045 179.572 47.1902C180.202 47.5906 181.051 48.3862 179.578 49.142C179.536 49.1632 179.489 49.1844 179.442 49.1977C179.165 49.2852 178.169 49.5027 176.845 48.7204C176.706 48.6381 176.594 48.5162 176.518 48.3729C176.307 47.9752 176.017 47.0788 176.455 45.5539C176.578 45.1243 176.999 44.8538 177.435 44.9148L178.412 45.0501C178.891 45.1164 179.233 45.5592 179.181 46.0472L179.178 46.0498Z" fill="#FF814A"/>
<path d="M167.849 35.6643C165.32 37.4039 161.534 41.35 166.561 47.4522C167.17 48.1921 167.938 48.7781 168.811 49.16C171.4 50.2924 177.869 51.324 182.515 48.3777C183.361 47.842 184.487 44.779 184.351 43.3973C184.108 40.931 183.544 36.9478 178.661 34.5982C177.127 33.8609 177.143 33.312 176.905 32.1584C176.638 30.8722 176.853 30.4028 177.247 28.6313C177.482 27.5838 177.221 25.0432 176.719 24.0991C176.189 23.0993 174.311 22.2852 172.518 22.7837C171.126 23.1709 170.674 24.3723 170.141 25.7327C169.485 27.4034 169.561 30.0289 169.493 32.6066C169.461 33.8318 168.847 34.9748 167.849 35.6616V35.6643Z" fill="#FFC64A"/>
<path d="M171.619 27.0428C171.078 27.0428 170.64 26.5678 170.64 25.982C170.64 25.3961 171.078 24.9212 171.619 24.9212C172.161 24.9212 172.599 25.3961 172.599 25.982C172.599 26.5678 172.161 27.0428 171.619 27.0428Z" fill="white"/>
<path d="M171.797 27.0666C171.519 27.0666 171.293 26.822 171.293 26.5203C171.293 26.2186 171.519 25.974 171.797 25.974C172.076 25.974 172.301 26.2186 172.301 26.5203C172.301 26.822 172.076 27.0666 171.797 27.0666Z" fill="black"/>
<path d="M175.374 27.3981C174.833 27.3981 174.394 26.9232 174.394 26.3373C174.394 25.7515 174.833 25.2766 175.374 25.2766C175.915 25.2766 176.354 25.7515 176.354 26.3373C176.354 26.9232 175.915 27.3981 175.374 27.3981Z" fill="white"/>
<path d="M175.013 27.2814C174.735 27.2814 174.509 27.0369 174.509 26.7351C174.509 26.4334 174.735 26.1888 175.013 26.1888C175.292 26.1888 175.518 26.4334 175.518 26.7351C175.518 27.0369 175.292 27.2814 175.013 27.2814Z" fill="black"/>
<path d="M174.077 23.9739C173.695 23.8267 173.638 23.0337 173.949 22.2026C174.26 21.3715 174.821 20.8171 175.203 20.9643C175.585 21.1115 175.642 21.9045 175.331 22.7356C175.02 23.5667 174.458 24.1211 174.077 23.9739Z" fill="#FFC64A"/>
<path d="M172.787 23.0978C172.507 22.2556 172.609 21.4595 173.017 21.3198C173.424 21.1801 173.982 21.7496 174.262 22.5919C174.543 23.4341 174.44 24.2301 174.032 24.3699C173.625 24.5096 173.067 23.9401 172.787 23.0978Z" fill="#FFC64A"/>
<path d="M171.491 29.4735C171.411 29.1586 172.036 28.7228 172.887 28.5001C173.738 28.2774 174.493 28.3521 174.573 28.6669C174.653 28.9818 174.028 29.4176 173.177 29.6403C172.326 29.863 171.571 29.7883 171.491 29.4735Z" fill="#FF814A"/>
<path d="M172.875 28.8225C172.045 28.5302 171.457 28.0442 171.562 27.737C171.667 27.4298 172.425 27.4177 173.255 27.7101C174.085 28.0024 174.673 28.4883 174.568 28.7955C174.463 29.1027 173.705 29.1148 172.875 28.8225Z" fill="#FF814A"/>
<path d="M174.453 25.0389C174.398 24.9211 174.586 24.7139 174.873 24.5761C175.16 24.4382 175.437 24.4221 175.492 24.5399C175.547 24.6577 175.359 24.8649 175.072 25.0028C174.785 25.1406 174.508 25.1567 174.453 25.0389Z" fill="black"/>
<path d="M172.093 24.8124C171.806 24.6746 171.618 24.4673 171.673 24.3495C171.728 24.2317 172.005 24.2479 172.292 24.3857C172.579 24.5235 172.767 24.7307 172.712 24.8485C172.657 24.9664 172.38 24.9502 172.093 24.8124Z" fill="black"/>
</g>
<path d="M24.1094 51.0547C23.9219 50.4609 23.7578 49.7812 23.6172 49.0156C23.4766 48.2344 23.4062 47.4062 23.4062 46.5312C23.4062 45.4844 23.5469 44.4297 23.8281 43.3672C24.125 42.2891 24.6484 41.3047 25.3984 40.4141C25.8203 40.1953 26.3281 40.0156 26.9219 39.875C27.5156 39.7344 28.1484 39.6641 28.8203 39.6641C29.3359 39.6641 29.8594 39.7109 30.3906 39.8047C30.9219 39.8984 31.4375 40.0547 31.9375 40.2734C31.9531 41.2266 31.9688 42.1953 31.9844 43.1797C32 44.1641 32.0547 45.1875 32.1484 46.25C32.2422 47.3125 32.3984 48.4297 32.6172 49.6016C32.8359 50.7578 33.1484 51.9844 33.5547 53.2812C33.7734 53.3438 34.0078 53.3828 34.2578 53.3984C34.5078 53.4141 34.7578 53.4219 35.0078 53.4219C35.3672 53.4219 35.7031 53.4062 36.0156 53.375C36.3438 53.3594 36.6094 53.3672 36.8125 53.3984C36.8438 52.7734 36.8594 52.0625 36.8594 51.2656C36.875 50.4688 36.8828 49.6016 36.8828 48.6641C36.8828 46.7422 36.8594 44.625 36.8125 42.3125C36.7812 39.9844 36.7266 37.6406 36.6484 35.2812C36.6016 33.7188 36.5625 32.1719 36.5312 30.6406C36.5 29.0938 36.4844 27.6484 36.4844 26.3047C36.4844 25.2891 36.4922 24.3672 36.5078 23.5391C36.5391 22.7109 36.5781 22.0078 36.625 21.4297C36.0156 21.4609 35.3516 21.4922 34.6328 21.5234C33.9141 21.5547 33.2109 21.6016 32.5234 21.6641L32.4531 28.25C32 28.3594 31.5703 28.4531 31.1641 28.5312C30.7734 28.6094 30.3828 28.6719 29.9922 28.7188C29.6172 28.7656 29.2344 28.7969 28.8438 28.8125C28.4688 28.8281 28.0703 28.8281 27.6484 28.8125C27.3672 28.5781 27.0625 28.1797 26.7344 27.6172C26.4062 27.0547 26.1016 26.3984 25.8203 25.6484C25.5391 24.8984 25.3047 24.1016 25.1172 23.2578C24.9297 22.3984 24.8359 21.5703 24.8359 20.7734C24.8359 19.3672 25.0859 18.1953 25.5859 17.2578C26.0859 16.3203 26.8516 15.6406 27.8828 15.2188C28.4609 14.9063 29.1172 14.6797 29.8516 14.5391C30.6016 14.3984 31.4297 14.2734 32.3359 14.1641C33.4609 14.0234 34.7109 13.9531 36.0859 13.9531C37.5859 13.9531 39.1172 14.0234 40.6797 14.1641C42.2422 14.3047 43.6875 14.4844 45.0156 14.7031L46.2578 16.1562C46.2422 16.6875 46.2188 17.3203 46.1875 18.0547C46.1719 18.7891 46.1484 19.5625 46.1172 20.375C46.1016 21.1875 46.0781 22.0156 46.0469 22.8594C46.0156 23.6875 45.9844 24.4844 45.9531 25.25C45.9375 26 45.9141 26.6875 45.8828 27.3125C45.8672 27.9375 45.8516 28.4375 45.8359 28.8125C45.8047 29.5938 45.7656 30.6172 45.7188 31.8828C45.6719 33.1328 45.625 34.5078 45.5781 36.0078C45.5312 37.4922 45.4766 39.0391 45.4141 40.6484C45.3516 42.2422 45.2891 43.7734 45.2266 45.2422C45.1641 46.6953 45.0938 48.0234 45.0156 49.2266C44.9531 50.4141 44.8828 51.3516 44.8047 52.0391C44.6797 53.1172 44.5 54.1328 44.2656 55.0859C44.0469 56.0391 43.6641 56.8906 43.1172 57.6406C42.4453 58.5312 41.5547 59.1641 40.4453 59.5391C39.3359 59.9297 38.1406 60.125 36.8594 60.125C35.2031 60.125 33.7109 59.9766 32.3828 59.6797C31.0703 59.3828 29.8906 58.8828 28.8438 58.1797C27.8125 57.4922 26.9062 56.5625 26.125 55.3906C25.3438 54.2344 24.6719 52.7891 24.1094 51.0547ZM52.3516 41.7734C52.3516 39.7734 52.3828 37.8047 52.4453 35.8672C52.5078 33.9297 52.6328 32.0234 52.8203 30.1484L50.3359 29.7969C50.2109 29.2969 50.1094 28.875 50.0312 28.5312C49.9531 28.1719 49.8906 27.8203 49.8438 27.4766C49.7969 27.1328 49.7578 26.7656 49.7266 26.375C49.7109 25.9688 49.7031 25.4688 49.7031 24.875C50.5938 24.0312 51.5625 23.3828 52.6094 22.9297C53.6719 22.4609 54.8906 22.2266 56.2656 22.2266C60.2969 22.2266 62.3125 24.25 62.3125 28.2969C62.3125 29.2969 62.2266 30.4375 62.0547 31.7188C61.8984 32.9844 61.7109 34.2812 61.4922 35.6094C61.2734 36.9375 61.0547 38.2266 60.8359 39.4766C60.6328 40.7266 60.4844 41.8281 60.3906 42.7812C60.6562 43.0625 60.9844 43.2578 61.375 43.3672C61.5156 43.3672 61.7969 43.1406 62.2188 42.6875C62.6562 42.2188 63.1484 41.6406 63.6953 40.9531C64.2422 40.25 64.7891 39.4922 65.3359 38.6797C65.8984 37.8516 66.3828 37.0625 66.7891 36.3125C66.8516 35.2812 66.9219 34.2578 67 33.2422C67.0781 32.2109 67.1797 31.1797 67.3047 30.1484L64.8438 29.6562C64.75 29.2656 64.6641 28.9062 64.5859 28.5781C64.5234 28.2344 64.4688 27.9062 64.4219 27.5938C64.375 27.2812 64.3438 26.9766 64.3281 26.6797C64.3125 26.3672 64.3047 26.0391 64.3047 25.6953C64.3047 25.5859 64.3047 25.4844 64.3047 25.3906C64.3203 25.2812 64.3281 25.1641 64.3281 25.0391C64.5625 24.7578 64.875 24.4531 65.2656 24.125C65.6562 23.7969 66.1172 23.4922 66.6484 23.2109C67.1953 22.9297 67.8125 22.6953 68.5 22.5078C69.1875 22.3203 69.9297 22.2266 70.7266 22.2266C74.7578 22.2266 76.7734 24.25 76.7734 28.2969C76.7734 29.2188 76.6797 30.3125 76.4922 31.5781C76.3047 32.8281 76.0703 34.125 75.7891 35.4688C75.5234 36.8125 75.2266 38.1328 74.8984 39.4297C74.5859 40.7266 74.2969 41.8828 74.0312 42.8984L76.7266 41.7266C77.1016 42.1328 77.4766 42.6797 77.8516 43.3672C78.2422 44.0547 78.4922 44.8984 78.6016 45.8984C78.4609 46.1797 78.1719 46.5781 77.7344 47.0938C77.3125 47.5938 76.7656 48.1016 76.0938 48.6172C75.4375 49.1172 74.6875 49.5547 73.8438 49.9297C73 50.2891 72.1016 50.4688 71.1484 50.4688C70.4766 50.4688 69.8828 50.3594 69.3672 50.1406C68.8672 49.9375 68.4453 49.6484 68.1016 49.2734C67.7734 48.8984 67.5234 48.4609 67.3516 47.9609C67.1953 47.4609 67.1172 46.9219 67.1172 46.3438C67.1172 46.1875 67.1406 45.9297 67.1875 45.5703C67.2344 45.1953 67.2891 44.8047 67.3516 44.3984C67.4297 43.9922 67.5078 43.6094 67.5859 43.25C67.6641 42.875 67.7266 42.5938 67.7734 42.4062L67.1172 42.1953C66.7109 43.6016 66.2344 44.8203 65.6875 45.8516C65.1406 46.8828 64.5312 47.7422 63.8594 48.4297C63.1875 49.1172 62.4609 49.6328 61.6797 49.9766C60.8984 50.3047 60.0781 50.4688 59.2188 50.4688C57.8438 50.4688 56.7109 50.2109 55.8203 49.6953C54.9297 49.1797 54.2266 48.5078 53.7109 47.6797C53.1953 46.8516 52.8359 45.9219 52.6328 44.8906C52.4453 43.8594 52.3516 42.8203 52.3516 41.7734ZM80.9688 46.6719C80.9688 46.2344 80.9922 45.8281 81.0391 45.4531C81.0859 45.0625 81.1719 44.6797 81.2969 44.3047C81.4375 43.9141 81.625 43.5156 81.8594 43.1094C82.0938 42.6875 82.4062 42.2266 82.7969 41.7266C83.5 42.0078 84.2188 42.2891 84.9531 42.5703C85.6875 42.8516 86.4297 43.1094 87.1797 43.3438C87.9297 43.5625 88.6875 43.7422 89.4531 43.8828C90.2188 44.0234 91 44.0938 91.7969 44.0938C92.2344 44.0938 92.5469 44.0547 92.7344 43.9766C92.7812 43.9141 92.8203 43.8203 92.8516 43.6953C92.8984 43.5547 92.9219 43.4141 92.9219 43.2734C92.9219 43.1484 92.8828 43.0234 92.8047 42.8984C92.7422 42.7578 92.6016 42.625 92.3828 42.5C91.5234 42.0312 90.6328 41.5938 89.7109 41.1875C88.8047 40.7656 87.9141 40.3359 87.0391 39.8984C86.1641 39.4453 85.3359 38.9531 84.5547 38.4219C83.7891 37.8906 83.1094 37.2812 82.5156 36.5938C81.9375 35.8906 81.4766 35.0859 81.1328 34.1797C80.7891 33.2734 80.6172 32.2109 80.6172 30.9922C80.6172 29.7734 80.7891 28.6328 81.1328 27.5703C81.4922 26.5078 82.0625 25.5781 82.8438 24.7812C83.625 23.9844 84.6406 23.3594 85.8906 22.9062C87.1406 22.4531 88.6719 22.2266 90.4844 22.2266C90.8438 22.2266 91.3828 22.2344 92.1016 22.25C92.8203 22.2656 93.625 22.3281 94.5156 22.4375C95.4062 22.5312 96.3281 22.6875 97.2812 22.9062C98.25 23.125 99.1562 23.4297 100 23.8203C100.062 24.0703 100.102 24.3438 100.117 24.6406C100.148 24.9219 100.164 25.2188 100.164 25.5312C100.164 26.1562 100.109 26.8125 100 27.5C99.9062 28.1719 99.7656 28.8359 99.5781 29.4922C99.3906 30.1328 99.1562 30.7266 98.875 31.2734C98.6094 31.8047 98.3047 32.2422 97.9609 32.5859C97.2266 32.3516 96.4766 32.0859 95.7109 31.7891C94.9453 31.4766 94.1875 31.1719 93.4375 30.875C92.7031 30.5781 91.9922 30.3047 91.3047 30.0547C90.6328 29.8047 90.0156 29.625 89.4531 29.5156C89.1406 29.5938 88.8906 29.7812 88.7031 30.0781C88.5156 30.3594 88.4219 30.6953 88.4219 31.0859C88.4219 31.3672 88.4844 31.6094 88.6094 31.8125C88.75 32 88.9219 32.1719 89.125 32.3281C89.3438 32.4688 89.5703 32.6016 89.8047 32.7266C90.0547 32.8359 90.2969 32.9375 90.5312 33.0312C91.4844 33.4375 92.5156 33.875 93.625 34.3438C94.75 34.7969 95.7969 35.3516 96.7656 36.0078C97.8906 36.7891 98.8125 37.7031 99.5312 38.75C100.266 39.7969 100.633 40.9922 100.633 42.3359C100.633 43.2578 100.492 44.1094 100.211 44.8906C99.9297 45.6562 99.5469 46.3516 99.0625 46.9766C98.5938 47.5859 98.0312 48.1172 97.375 48.5703C96.7344 49.0234 96.0547 49.3828 95.3359 49.6484C94.4922 49.9609 93.5938 50.1797 92.6406 50.3047C91.6875 50.4297 90.5781 50.4922 89.3125 50.4922C88.7344 50.4922 88.0625 50.4375 87.2969 50.3281C86.5312 50.2188 85.7578 50.0234 84.9766 49.7422C84.1953 49.4609 83.4453 49.0781 82.7266 48.5938C82.0234 48.0938 81.4375 47.4531 80.9688 46.6719ZM105.32 44.7734C105.273 43.9453 105.234 42.875 105.203 41.5625C105.172 40.2344 105.156 38.7344 105.156 37.0625C105.156 36 105.164 34.8906 105.18 33.7344C105.195 32.5781 105.227 31.3672 105.273 30.1016L102.719 29.6562C102.625 29.2656 102.539 28.9062 102.461 28.5781C102.398 28.2344 102.344 27.9062 102.297 27.5938C102.25 27.2812 102.219 26.9766 102.203 26.6797C102.188 26.3672 102.18 26.0391 102.18 25.6953C102.18 25.5859 102.195 25.4219 102.227 25.2031C102.273 24.9844 102.297 24.8125 102.297 24.6875L105.695 23.9375C105.727 23.4844 105.789 22.9766 105.883 22.4141C105.977 21.8359 106.086 21.2734 106.211 20.7266C106.336 20.1641 106.477 19.6406 106.633 19.1562C106.789 18.6562 106.953 18.2578 107.125 17.9609C107.641 17.5547 108.258 17.2656 108.977 17.0938C109.695 16.9219 110.438 16.8359 111.203 16.8359C111.906 16.8359 112.578 16.9062 113.219 17.0469C113.859 17.1719 114.422 17.3438 114.906 17.5625C114.953 18.1094 114.977 18.7188 114.977 19.3906C114.977 20.0156 114.961 20.6562 114.93 21.3125C114.898 21.9688 114.859 22.6016 114.812 23.2109L118.938 22.4609C119.25 23.0078 119.469 23.5547 119.594 24.1016C119.734 24.6484 119.805 25.1875 119.805 25.7188C119.805 26.1875 119.766 26.6484 119.688 27.1016C119.609 27.5391 119.508 27.9453 119.383 28.3203C119.273 28.6953 119.156 29.0391 119.031 29.3516C118.906 29.6641 118.797 29.9297 118.703 30.1484C118.359 30.2109 117.82 30.2734 117.086 30.3359C116.367 30.3984 115.492 30.4453 114.461 30.4766C114.367 31.5547 114.242 32.6953 114.086 33.8984C113.945 35.1016 113.797 36.2578 113.641 37.3672C113.5 38.4609 113.359 39.4609 113.219 40.3672C113.078 41.2734 112.969 41.9844 112.891 42.5L112.938 42.5469L118.445 40.8359C119.102 41.3828 119.586 42.0469 119.898 42.8281C120.211 43.5938 120.422 44.3984 120.531 45.2422C119.688 46.2266 118.734 47.1016 117.672 47.8672C117.219 48.1953 116.719 48.5156 116.172 48.8281C115.625 49.1406 115.039 49.4219 114.414 49.6719C113.805 49.9062 113.148 50.0938 112.445 50.2344C111.758 50.3906 111.039 50.4688 110.289 50.4688C109.68 50.4688 109.086 50.3828 108.508 50.2109C107.945 50.0391 107.438 49.7422 106.984 49.3203C106.531 48.8828 106.156 48.2969 105.859 47.5625C105.562 46.8281 105.383 45.8984 105.32 44.7734ZM140.664 38.9375C140.336 38.4219 139.945 37.7734 139.492 36.9922C139.039 36.2109 138.555 35.3516 138.039 34.4141C137.523 33.4609 136.992 32.4453 136.445 31.3672C135.914 30.2891 135.398 29.1953 134.898 28.0859C134.398 26.9609 133.93 25.8438 133.492 24.7344C133.055 23.625 132.68 22.5625 132.367 21.5469L128.805 21.0547C128.695 20.6016 128.602 20.1875 128.523 19.8125C128.445 19.4375 128.383 19.0781 128.336 18.7344C128.289 18.375 128.258 18.0156 128.242 17.6562C128.227 17.2969 128.227 16.9062 128.242 16.4844C128.477 16.2031 128.852 15.8984 129.367 15.5703C129.867 15.2422 130.461 14.9375 131.148 14.6562C131.836 14.375 132.578 14.1406 133.375 13.9531C134.188 13.7656 134.992 13.6719 135.789 13.6719C138.695 13.6719 140.516 14.7656 141.25 16.9531C141.359 17.2188 141.523 17.6562 141.742 18.2656C141.977 18.8594 142.234 19.5781 142.516 20.4219C142.797 21.25 143.102 22.1797 143.43 23.2109C143.758 24.2422 144.078 25.3203 144.391 26.4453C144.703 27.5703 145 28.7188 145.281 29.8906C145.562 31.0625 145.805 32.2031 146.008 33.3125C146.461 32.4062 146.93 31.4141 147.414 30.3359C147.898 29.2422 148.359 28.1641 148.797 27.1016C149.234 26.0234 149.617 25 149.945 24.0312C150.289 23.0469 150.547 22.2031 150.719 21.5H150.672L147.812 21.0078C147.703 20.5547 147.609 20.1406 147.531 19.7656C147.453 19.3906 147.391 19.0312 147.344 18.6875C147.297 18.3281 147.266 17.9688 147.25 17.6094C147.234 17.25 147.234 16.8594 147.25 16.4375C147.484 16.1562 147.852 15.8516 148.352 15.5234C148.867 15.1953 149.469 14.8906 150.156 14.6094C150.844 14.3281 151.586 14.0938 152.383 13.9062C153.195 13.7188 154 13.625 154.797 13.625C157.797 13.625 159.633 14.7812 160.305 17.0938C160.398 17.4062 160.461 17.7031 160.492 17.9844C160.539 18.2656 160.562 18.5391 160.562 18.8047C160.562 19.7266 160.344 20.7734 159.906 21.9453C159.484 23.1172 158.93 24.3359 158.242 25.6016C157.555 26.8672 156.773 28.1484 155.898 29.4453C155.039 30.7266 154.18 31.9375 153.32 33.0781C152.477 34.2188 151.672 35.25 150.906 36.1719C150.141 37.0938 149.508 37.8281 149.008 38.375C148.867 39.2188 148.727 40.0391 148.586 40.8359C148.445 41.6172 148.289 42.375 148.117 43.1094L148.164 43.1562L151.633 41.7031C152.273 42.25 152.766 42.875 153.109 43.5781C153.453 44.2656 153.672 45.0312 153.766 45.875C153.156 46.7344 152.445 47.5 151.633 48.1719C151.289 48.4531 150.906 48.7344 150.484 49.0156C150.062 49.2812 149.602 49.5234 149.102 49.7422C148.617 49.9453 148.094 50.1094 147.531 50.2344C146.969 50.375 146.375 50.4453 145.75 50.4453C145.078 50.4453 144.43 50.3594 143.805 50.1875C143.195 50.0156 142.648 49.7188 142.164 49.2969C141.68 48.8594 141.297 48.2734 141.016 47.5391C140.734 46.8047 140.602 45.875 140.617 44.75L140.664 38.9375ZM195.086 53.1406C195.086 51.4062 195.086 49.5625 195.086 47.6094C195.102 45.6406 195.125 43.6641 195.156 41.6797C195.203 39.6797 195.258 37.7109 195.32 35.7734C195.398 33.8359 195.508 32.0156 195.648 30.3125L193.094 29.8906C192.922 29.3594 192.781 28.8672 192.672 28.4141C192.562 27.9609 192.477 27.5156 192.414 27.0781C192.367 26.625 192.336 26.1641 192.32 25.6953C192.305 25.2109 192.297 24.6719 192.297 24.0781C192.438 23.9531 192.68 23.7891 193.023 23.5859C193.383 23.3672 193.812 23.1641 194.312 22.9766C194.812 22.7734 195.367 22.6016 195.977 22.4609C196.602 22.3047 197.258 22.2266 197.945 22.2266C198.93 22.2266 199.75 22.3359 200.406 22.5547C201.078 22.7734 201.617 23.0938 202.023 23.5156C202.43 23.9375 202.719 24.4531 202.891 25.0625C203.062 25.6562 203.148 26.3359 203.148 27.1016C203.148 27.6484 203.109 28.2266 203.031 28.8359C202.969 29.4453 202.875 30.0938 202.75 30.7812C202.594 31.6562 202.469 32.3516 202.375 32.8672C202.297 33.3672 202.234 33.7578 202.188 34.0391C202.141 34.3047 202.109 34.4844 202.094 34.5781C202.094 34.6562 202.094 34.6953 202.094 34.6953C202.094 34.7734 202.148 34.8516 202.258 34.9297C202.367 34.9922 202.484 35.0234 202.609 35.0234C202.75 35.0234 202.844 34.9688 202.891 34.8594C203.016 34.4062 203.133 33.9375 203.242 33.4531C203.367 32.9531 203.5 32.4453 203.641 31.9297C203.984 30.6172 204.422 29.375 204.953 28.2031C205.5 27.0156 206.148 25.9844 206.898 25.1094C207.648 24.2188 208.508 23.5156 209.477 23C210.461 22.4844 211.562 22.2266 212.781 22.2266C214.141 22.2266 215.281 22.4609 216.203 22.9297C217.125 23.3828 217.875 23.9844 218.453 24.7344C219.031 25.4844 219.445 26.3438 219.695 27.3125C219.945 28.2656 220.07 29.25 220.07 30.2656C220.07 31.25 220.016 32.3125 219.906 33.4531C219.812 34.5781 219.672 35.7266 219.484 36.8984C219.312 38.0703 219.102 39.2422 218.852 40.4141C218.602 41.5703 218.32 42.6797 218.008 43.7422C217.711 44.7422 217.312 45.6562 216.812 46.4844C216.328 47.3125 215.734 48.0234 215.031 48.6172C214.344 49.2109 213.555 49.6719 212.664 50C211.773 50.3281 210.781 50.4922 209.688 50.4922C209.328 50.4922 208.938 50.4688 208.516 50.4219C208.109 50.375 207.641 50.2891 207.109 50.1641C206.594 50.0391 206.008 49.875 205.352 49.6719C204.695 49.4531 203.953 49.1875 203.125 48.875L202.188 53.3047L202.234 53.3516L206.711 53.0469C206.914 53.3281 207.078 53.6641 207.203 54.0547C207.328 54.4453 207.43 54.8281 207.508 55.2031C207.602 55.5938 207.672 55.9609 207.719 56.3047C207.766 56.6484 207.805 56.9219 207.836 57.125C207.273 57.6875 206.609 58.1875 205.844 58.625C205.188 59 204.383 59.3438 203.43 59.6562C202.477 59.9688 201.375 60.125 200.125 60.125C199.469 60.125 198.836 60.0469 198.227 59.8906C197.617 59.7344 197.078 59.4531 196.609 59.0469C196.156 58.6406 195.789 58.0859 195.508 57.3828C195.227 56.6953 195.086 55.8203 195.086 54.7578V53.1406ZM203.688 42.2422C204.219 42.6172 204.797 42.9453 205.422 43.2266C206.062 43.4922 206.664 43.7109 207.227 43.8828C207.789 44.0547 208.289 44.1719 208.727 44.2344C209.164 44.2969 209.453 44.2969 209.594 44.2344C209.781 43.5625 209.93 42.8125 210.039 41.9844C210.148 41.1562 210.227 40.3203 210.273 39.4766C210.336 38.6172 210.375 37.7734 210.391 36.9453C210.422 36.1016 210.438 35.3359 210.438 34.6484C210.438 34.3359 210.43 34.0312 210.414 33.7344C210.398 33.4219 210.367 33.1328 210.32 32.8672C209.961 32.4141 209.445 32.1875 208.773 32.1875C208.695 32.25 208.539 32.4688 208.305 32.8438C208.07 33.2031 207.797 33.6562 207.484 34.2031C207.172 34.7344 206.828 35.3281 206.453 35.9844C206.094 36.625 205.734 37.2656 205.375 37.9062C205.031 38.5469 204.711 39.1484 204.414 39.7109C204.117 40.2734 203.875 40.7422 203.688 41.1172V42.2422ZM223.516 14.1406C223.906 13.875 224.398 13.6094 224.992 13.3438C225.602 13.0781 226.266 12.8438 226.984 12.6406C227.703 12.4375 228.445 12.2734 229.211 12.1484C229.992 12.0234 230.742 11.9609 231.461 11.9609C232.008 11.9609 232.523 12.0078 233.008 12.1016C233.492 12.1797 233.93 12.3125 234.32 12.5C234.32 13.9062 234.266 15.5312 234.156 17.375C234.062 19.2031 233.93 21.1406 233.758 23.1875C233.602 25.2344 233.422 27.3359 233.219 29.4922C233.031 31.6484 232.836 33.75 232.633 35.7969C232.289 36.375 231.773 36.8281 231.086 37.1562C230.398 37.4844 229.664 37.6484 228.883 37.6484C228.305 37.6484 227.742 37.5547 227.195 37.3672C226.648 37.1641 226.164 36.8516 225.742 36.4297L223.516 14.1406ZM223.305 45.3359C223.305 44.7266 223.406 44.1406 223.609 43.5781C223.812 43.0156 224.141 42.5156 224.594 42.0781C225.062 41.625 225.672 41.2656 226.422 41C227.188 40.7344 228.125 40.6016 229.234 40.6016C230.344 40.6016 231.273 40.7344 232.023 41C232.789 41.2656 233.398 41.625 233.852 42.0781C234.32 42.5156 234.656 43.0156 234.859 43.5781C235.062 44.1406 235.164 44.7266 235.164 45.3359C235.164 46.0391 234.992 46.7031 234.648 47.3281C234.32 47.9375 233.875 48.4766 233.312 48.9453C232.766 49.4141 232.133 49.7812 231.414 50.0469C230.711 50.3281 229.984 50.4688 229.234 50.4688C228.484 50.4688 227.75 50.3281 227.031 50.0469C226.328 49.7812 225.695 49.4141 225.133 48.9453C224.586 48.4766 224.141 47.9375 223.797 47.3281C223.469 46.7031 223.305 46.0391 223.305 45.3359Z" fill="#8D5F4A"/>
<defs>
<clipPath id="clip0_208_453">
<rect width="31" height="37" fill="white" transform="matrix(-1 0 0 1 190 16)"/>
</clipPath>
</defs>
</svg>
