<svg width="260" height="69" viewBox="0 0 260 69" fill="none" xmlns="http://www.w3.org/2000/svg">
<g clip-path="url(#clip0_203_433)">
<path d="M188.137 46.0521C188.137 46.0521 191 42.4693 189.623 36.0277C189.103 33.5985 187.943 31.3603 186.342 29.4774C183.442 26.0723 177.793 19.6386 175.261 18.1589C174.869 17.9308 174.391 17.9467 174.015 18.2013C173.022 18.8722 171.102 20.6835 170.979 24.733C170.95 25.709 169.848 26.2155 169.093 25.6135C168.761 25.3483 167.922 23.004 167.287 22.9377C166.441 22.8475 166.111 23.5556 165.887 23.7969C164.745 25.0221 159.692 29.5304 159.01 40.5174C159.01 40.5174 158.035 51.0961 173.916 51.7882C173.916 51.7882 184.144 52.2815 188.139 46.0521H188.137Z" fill="#FF814A"/>
<path d="M168.581 47.8536L168.568 48.1241C168.549 48.4742 168.335 48.7791 168.016 48.917C167.332 49.2141 166.37 49.8611 167.708 50.845C167.747 50.8742 167.789 50.9007 167.834 50.9219C168.095 51.0519 169.043 51.4258 170.472 50.8662C170.624 50.8079 170.752 50.7045 170.851 50.5745C171.123 50.2139 171.546 49.3785 171.35 47.8006C171.295 47.3577 170.922 47.0209 170.483 47.0129L169.498 46.9917C169.014 46.9811 168.61 47.363 168.586 47.8536H168.581Z" fill="#FF814A"/>
<path d="M179.178 48.0498L179.149 48.3203C179.113 48.6704 179.277 49.0045 179.572 49.1902C180.202 49.5906 181.051 50.3862 179.578 51.142C179.536 51.1632 179.489 51.1844 179.442 51.1977C179.165 51.2852 178.169 51.5027 176.845 50.7204C176.706 50.6381 176.594 50.5162 176.518 50.3729C176.307 49.9752 176.017 49.0788 176.455 47.5539C176.578 47.1243 176.999 46.8538 177.435 46.9148L178.412 47.0501C178.891 47.1164 179.233 47.5592 179.181 48.0472L179.178 48.0498Z" fill="#FF814A"/>
<path d="M167.849 37.6643C165.32 39.4039 161.534 43.35 166.561 49.4522C167.17 50.1921 167.938 50.7781 168.811 51.16C171.4 52.2924 177.869 53.324 182.515 50.3777C183.361 49.842 184.487 46.779 184.351 45.3973C184.108 42.931 183.544 38.9478 178.661 36.5982C177.127 35.8609 177.143 35.312 176.905 34.1584C176.638 32.8722 176.853 32.4028 177.247 30.6313C177.482 29.5838 177.221 27.0432 176.719 26.0991C176.189 25.0993 174.311 24.2852 172.518 24.7837C171.126 25.1709 170.674 26.3723 170.141 27.7327C169.485 29.4034 169.561 32.0289 169.493 34.6066C169.461 35.8318 168.847 36.9748 167.849 37.6616V37.6643Z" fill="#FFC64A"/>
<path d="M171.619 29.0428C171.078 29.0428 170.64 28.5678 170.64 27.982C170.64 27.3961 171.078 26.9212 171.619 26.9212C172.161 26.9212 172.599 27.3961 172.599 27.982C172.599 28.5678 172.161 29.0428 171.619 29.0428Z" fill="white"/>
<path d="M171.797 29.0666C171.519 29.0666 171.293 28.822 171.293 28.5203C171.293 28.2186 171.519 27.974 171.797 27.974C172.076 27.974 172.301 28.2186 172.301 28.5203C172.301 28.822 172.076 29.0666 171.797 29.0666Z" fill="black"/>
<path d="M175.374 29.3981C174.833 29.3981 174.394 28.9232 174.394 28.3373C174.394 27.7515 174.833 27.2766 175.374 27.2766C175.915 27.2766 176.354 27.7515 176.354 28.3373C176.354 28.9232 175.915 29.3981 175.374 29.3981Z" fill="white"/>
<path d="M175.013 29.2814C174.735 29.2814 174.509 29.0369 174.509 28.7351C174.509 28.4334 174.735 28.1888 175.013 28.1888C175.292 28.1888 175.518 28.4334 175.518 28.7351C175.518 29.0369 175.292 29.2814 175.013 29.2814Z" fill="black"/>
<path d="M174.077 25.9739C173.695 25.8267 173.638 25.0337 173.949 24.2026C174.26 23.3715 174.821 22.8171 175.203 22.9643C175.585 23.1115 175.642 23.9045 175.331 24.7356C175.02 25.5667 174.458 26.1211 174.077 25.9739Z" fill="#FFC64A"/>
<path d="M172.787 25.0978C172.507 24.2556 172.609 23.4595 173.017 23.3198C173.424 23.1801 173.982 23.7496 174.262 24.5919C174.543 25.4341 174.44 26.2301 174.032 26.3699C173.625 26.5096 173.067 25.9401 172.787 25.0978Z" fill="#FFC64A"/>
<path d="M171.491 31.4735C171.411 31.1586 172.036 30.7228 172.887 30.5001C173.738 30.2774 174.493 30.3521 174.573 30.6669C174.653 30.9818 174.028 31.4176 173.177 31.6403C172.326 31.863 171.571 31.7883 171.491 31.4735Z" fill="#FF814A"/>
<path d="M172.875 30.8225C172.045 30.5302 171.457 30.0442 171.562 29.737C171.667 29.4298 172.425 29.4177 173.255 29.7101C174.085 30.0024 174.673 30.4883 174.568 30.7955C174.463 31.1027 173.705 31.1148 172.875 30.8225Z" fill="#FF814A"/>
<path d="M174.453 27.0389C174.398 26.9211 174.586 26.7139 174.873 26.5761C175.16 26.4382 175.437 26.4221 175.492 26.5399C175.547 26.6577 175.359 26.8649 175.072 27.0028C174.785 27.1406 174.508 27.1567 174.453 27.0389Z" fill="black"/>
<path d="M172.093 26.8124C171.806 26.6746 171.618 26.4673 171.673 26.3495C171.728 26.2317 172.005 26.2479 172.292 26.3857C172.579 26.5235 172.767 26.7307 172.712 26.8485C172.657 26.9664 172.38 26.9502 172.093 26.8124Z" fill="black"/>
</g>
<path d="M23.4062 43.5312C23.4062 41.0312 24.0703 38.9922 25.3984 37.4141C25.8359 37.1797 26.3516 37 26.9453 36.875C27.5391 36.7344 28.1641 36.6641 28.8203 36.6641C29.9766 36.6641 31.0156 36.8672 31.9375 37.2734C31.9375 37.7266 31.9453 38.0625 31.9609 38.2812C31.9766 39.8594 32.0156 41.2109 32.0781 42.3359C32.1406 43.4453 32.2812 44.6797 32.5 46.0391C32.7344 47.3984 33.0859 48.8125 33.5547 50.2812C33.9141 50.375 34.3984 50.4219 35.0078 50.4219L35.8516 50.3984C35.9922 50.3828 36.1953 50.375 36.4609 50.375L36.8125 50.3984C36.8594 49.1641 36.8828 47.5859 36.8828 45.6641C36.8828 41.9453 36.8047 37.4844 36.6484 32.2812C36.5391 28.6406 36.4844 25.6484 36.4844 23.3047C36.4844 21.1953 36.5312 19.5703 36.625 18.4297C34.9531 18.4922 33.5859 18.5703 32.5234 18.6641L32.4531 25.25C31.5156 25.4844 30.6875 25.6406 29.9688 25.7188C29.2656 25.7969 28.4922 25.8281 27.6484 25.8125C27.2578 25.5 26.8359 24.9062 26.3828 24.0312C25.9453 23.1406 25.5781 22.1328 25.2812 21.0078C24.9844 19.8672 24.8359 18.7891 24.8359 17.7734C24.8359 16.3672 25.0859 15.1953 25.5859 14.2578C26.1016 13.3203 26.8672 12.6406 27.8828 12.2188C28.4141 11.9375 29.0234 11.7266 29.7109 11.5859C30.4141 11.4297 31.2891 11.2891 32.3359 11.1641C33.4609 11.0234 34.7109 10.9531 36.0859 10.9531C37.5391 10.9531 39.0469 11.0234 40.6094 11.1641C42.1875 11.2891 43.6562 11.4688 45.0156 11.7031L46.2578 13.1562C46.0859 18.7969 45.9453 23.0156 45.8359 25.8125C45.7734 26.9688 45.7031 28.9688 45.625 31.8125C45.4688 36.2188 45.3281 39.875 45.2031 42.7812C45.0781 45.6719 44.9453 47.7578 44.8047 49.0391C44.6641 50.3047 44.4688 51.3828 44.2188 52.2734C43.9844 53.1797 43.6172 53.9688 43.1172 54.6406C42.4766 55.4844 41.6094 56.1094 40.5156 56.5156C39.4375 56.9219 38.2188 57.125 36.8594 57.125C34.5625 57.125 32.6172 56.8438 31.0234 56.2812C29.4297 55.7188 28.0625 54.7734 26.9219 53.4453C25.7969 52.1328 24.8594 50.3359 24.1094 48.0547C23.6406 46.5859 23.4062 45.0781 23.4062 43.5312ZM50.3359 26.7969C50.0703 25.6562 49.8984 24.8203 49.8203 24.2891C49.7422 23.7578 49.7031 22.9531 49.7031 21.875C50.625 21 51.6172 20.3438 52.6797 19.9062C53.7422 19.4531 54.9375 19.2266 56.2656 19.2266C60.2969 19.2266 62.3125 21.25 62.3125 25.2969C62.3125 26.375 62.2109 27.625 62.0078 29.0469C61.8203 30.4688 61.5469 32.2578 61.1875 34.4141C61.1406 34.6953 61.0156 35.4531 60.8125 36.6875C60.6094 37.9219 60.4688 38.9531 60.3906 39.7812C60.6562 40.0625 60.9844 40.2578 61.375 40.3672C61.5625 40.3672 61.9922 39.9844 62.6641 39.2188C63.3516 38.4375 64.0859 37.4922 64.8672 36.3828C65.6484 35.2734 66.2891 34.25 66.7891 33.3125C66.9141 31.0781 67.0859 29.0234 67.3047 27.1484L64.8438 26.6562C64.6406 25.875 64.5 25.1875 64.4219 24.5938C64.3438 24 64.3047 23.3672 64.3047 22.6953L64.3281 22.0391C64.8906 21.3203 65.7344 20.6719 66.8594 20.0938C67.9844 19.5156 69.2734 19.2266 70.7266 19.2266C74.7578 19.2266 76.7734 21.25 76.7734 25.2969C76.7734 26.9375 76.5 29.1016 75.9531 31.7891C75.4062 34.4609 74.7656 37.1641 74.0312 39.8984L76.7266 38.7266C77.1797 39.2109 77.5781 39.8047 77.9219 40.5078C78.2812 41.1953 78.5078 41.9922 78.6016 42.8984C78.3828 43.3672 77.9062 43.9688 77.1719 44.7031C76.4375 45.4219 75.5391 46.0625 74.4766 46.625C73.4141 47.1875 72.3047 47.4688 71.1484 47.4688C69.8516 47.4688 68.8516 47.0859 68.1484 46.3203C67.4609 45.5391 67.1172 44.5469 67.1172 43.3438C67.1172 43.0312 67.1953 42.3906 67.3516 41.4219C67.5234 40.4531 67.6641 39.7812 67.7734 39.4062L67.1172 39.1953C66.3359 41.9297 65.2578 43.9922 63.8828 45.3828C62.5234 46.7734 60.9688 47.4688 59.2188 47.4688C56.7031 47.4688 54.9297 46.6406 53.8984 44.9844C52.8672 43.3125 52.3516 41.2422 52.3516 38.7734C52.3516 34.1328 52.5078 30.2578 52.8203 27.1484L50.3359 26.7969ZM82.7969 38.7266C84.1719 39.2734 85.2734 39.6953 86.1016 39.9922C86.9297 40.2891 87.8359 40.5469 88.8203 40.7656C89.8203 40.9844 90.8125 41.0938 91.7969 41.0938C92.2344 41.0938 92.5469 41.0547 92.7344 40.9766C92.7812 40.9141 92.8203 40.8203 92.8516 40.6953C92.8984 40.5547 92.9219 40.4141 92.9219 40.2734C92.9219 39.9609 92.7422 39.7031 92.3828 39.5C91.8203 39.1875 90.8203 38.6953 89.3828 38.0234C87.4141 37.0859 85.8516 36.25 84.6953 35.5156C83.5547 34.7812 82.5859 33.8047 81.7891 32.5859C81.0078 31.3672 80.6172 29.8359 80.6172 27.9922C80.6172 25.3516 81.4062 23.2344 82.9844 21.6406C84.5625 20.0312 87.0625 19.2266 90.4844 19.2266C94.5625 19.2266 97.7344 19.7578 100 20.8203C100.109 21.2734 100.164 21.8438 100.164 22.5312C100.164 23.8438 99.9609 25.1875 99.5547 26.5625C99.1484 27.9219 98.6172 28.9297 97.9609 29.5859C97.0703 29.2891 95.8125 28.8125 94.1875 28.1562C93 27.6875 92.0547 27.3281 91.3516 27.0781C90.6641 26.8125 90.0312 26.625 89.4531 26.5156C89.1406 26.5938 88.8906 26.7812 88.7031 27.0781C88.5156 27.3594 88.4219 27.6953 88.4219 28.0859C88.4219 28.4297 88.5234 28.7188 88.7266 28.9531C88.9297 29.1875 89.1562 29.375 89.4062 29.5156C89.6719 29.6406 90.0469 29.8125 90.5312 30.0312C90.7812 30.1406 91.0156 30.2422 91.2344 30.3359C91.4531 30.4141 91.6562 30.4922 91.8438 30.5703C93.0625 31.0859 94.0234 31.5078 94.7266 31.8359C95.4297 32.1641 96.1094 32.5547 96.7656 33.0078C97.9688 33.8359 98.9141 34.7812 99.6016 35.8438C100.289 36.9062 100.633 38.0703 100.633 39.3359C100.633 41.0859 100.133 42.6016 99.1328 43.8828C98.1484 45.1484 96.8828 46.0703 95.3359 46.6484C94.5234 46.9453 93.6328 47.1562 92.6641 47.2812C91.7109 47.4219 90.5938 47.4922 89.3125 47.4922C87.7969 47.4922 86.2344 47.2031 84.625 46.625C83.0312 46.0312 81.8125 45.0469 80.9688 43.6719C80.9844 42.7188 81.1094 41.8906 81.3438 41.1875C81.5938 40.4688 82.0781 39.6484 82.7969 38.7266ZM105.156 34.0625C105.156 31.5156 105.195 29.1953 105.273 27.1016L102.719 26.6562C102.516 25.875 102.375 25.1875 102.297 24.5938C102.219 24 102.18 23.3672 102.18 22.6953L102.227 22.2266C102.273 22.0078 102.297 21.8281 102.297 21.6875L105.695 20.9375C105.773 19.9688 105.953 18.875 106.234 17.6562C106.516 16.4375 106.812 15.5391 107.125 14.9609C107.625 14.5859 108.227 14.3047 108.93 14.1172C109.633 13.9297 110.391 13.8359 111.203 13.8359C111.891 13.8359 112.555 13.9062 113.195 14.0469C113.852 14.1719 114.422 14.3438 114.906 14.5625C114.953 15.0938 114.977 15.7031 114.977 16.3906C114.977 17.5156 114.922 18.7891 114.812 20.2109L118.938 19.4609C119.516 20.4609 119.805 21.5469 119.805 22.7188C119.805 23.5312 119.703 24.2656 119.5 24.9219C119.312 25.5781 119.047 26.3203 118.703 27.1484C117.672 27.3203 116.258 27.4297 114.461 27.4766C114.242 30.0234 113.758 33.7656 113.008 38.7031L112.891 39.5L112.938 39.5469L118.445 37.8359C119.586 38.7891 120.281 40.2578 120.531 42.2422C120.531 42.3516 120.023 42.8672 119.008 43.7891C118.008 44.6953 116.75 45.5391 115.234 46.3203C113.719 47.0859 112.07 47.4688 110.289 47.4688C107.18 47.4688 105.523 45.5703 105.32 41.7734C105.211 39.8516 105.156 37.2812 105.156 34.0625ZM140.664 35.9375C139.898 34.75 138.977 33.1562 137.898 31.1562C136.836 29.1562 135.789 27.0234 134.758 24.7578C133.742 22.4922 132.945 20.4219 132.367 18.5469L128.805 18.0547C128.57 17.1016 128.414 16.3125 128.336 15.6875C128.258 15.0469 128.227 14.3125 128.242 13.4844C128.555 13.0937 129.117 12.6797 129.93 12.2422C130.727 11.7891 131.648 11.4141 132.695 11.1172C133.742 10.8203 134.773 10.6719 135.789 10.6719C138.695 10.6719 140.516 11.7656 141.25 13.9531C141.547 14.6406 142 15.8984 142.609 17.7266C143.234 19.5391 143.867 21.5859 144.508 23.8672C145.148 26.1484 145.648 28.2969 146.008 30.3125C146.961 28.4062 147.906 26.2969 148.844 23.9844C149.781 21.6719 150.406 19.8438 150.719 18.5H150.672L147.812 18.0078C147.578 17.0547 147.422 16.2656 147.344 15.6406C147.266 15 147.234 14.2656 147.25 13.4375C147.562 13.0469 148.117 12.6328 148.914 12.1953C149.727 11.7422 150.656 11.3672 151.703 11.0703C152.75 10.7734 153.781 10.625 154.797 10.625C157.797 10.625 159.633 11.7812 160.305 14.0938C160.477 14.6719 160.562 15.2422 160.562 15.8047C160.562 17.4766 159.867 19.5938 158.477 22.1562C157.086 24.7188 155.484 27.2109 153.672 29.6328C151.859 32.0547 150.305 33.9688 149.008 35.375C148.68 37.3906 148.383 38.9688 148.117 40.1094L148.164 40.1562L151.633 38.7031C152.852 39.75 153.562 41.1406 153.766 42.875C153.766 42.9688 153.391 43.4141 152.641 44.2109C151.906 45.0078 150.945 45.75 149.758 46.4375C148.57 47.1094 147.234 47.4453 145.75 47.4453C144.219 47.4453 142.977 47.0156 142.023 46.1562C141.07 45.2969 140.602 43.8281 140.617 41.75L140.664 35.9375ZM193.094 26.8906C192.766 25.875 192.547 24.9688 192.438 24.1719C192.344 23.375 192.297 22.3438 192.297 21.0781C192.547 20.8594 192.953 20.6094 193.516 20.3281C194.078 20.0312 194.75 19.7734 195.531 19.5547C196.312 19.3359 197.117 19.2266 197.945 19.2266C199.836 19.2266 201.172 19.6328 201.953 20.4453C202.75 21.2578 203.148 22.4766 203.148 24.1016C203.148 25.0078 203.016 26.2344 202.75 27.7812C202.312 30.2656 202.094 31.5703 202.094 31.6953C202.094 31.7734 202.148 31.8516 202.258 31.9297C202.367 31.9922 202.484 32.0234 202.609 32.0234C202.75 32.0234 202.844 31.9688 202.891 31.8594L203.125 30.9219L203.641 28.9297C204.406 26.0391 205.547 23.7031 207.062 21.9219C208.578 20.125 210.484 19.2266 212.781 19.2266C214.5 19.2266 215.898 19.6016 216.977 20.3516C218.07 21.0859 218.859 22.0625 219.344 23.2812C219.828 24.4844 220.07 25.8125 220.07 27.2656C220.07 29.2344 219.883 31.4453 219.508 33.8984C219.133 36.3359 218.633 38.6172 218.008 40.7422C217.398 42.8203 216.383 44.4688 214.961 45.6875C213.555 46.8906 211.797 47.4922 209.688 47.4922C208.922 47.4922 208.023 47.3672 206.992 47.1172C205.977 46.8828 204.688 46.4688 203.125 45.875L202.188 50.3047L202.234 50.3516L206.711 50.0469C207.008 50.4688 207.227 50.9766 207.367 51.5703C207.523 52.1797 207.656 52.875 207.766 53.6562L207.836 54.125C207.836 54.1875 207.492 54.4766 206.805 54.9922C206.117 55.5234 205.203 56.0078 204.062 56.4453C202.922 56.8984 201.609 57.125 200.125 57.125C196.766 57.125 195.086 55.3359 195.086 51.7578V50.1406C195.086 45.375 195.117 41.1328 195.18 37.4141C195.258 33.6797 195.414 30.3125 195.648 27.3125L193.094 26.8906ZM209.594 41.2344C210.156 39.125 210.438 35.9297 210.438 31.6484C210.438 30.9141 210.398 30.3203 210.32 29.8672C209.961 29.4141 209.445 29.1875 208.773 29.1875C208.555 29.375 207.805 30.6094 206.523 32.8906C205.242 35.1562 204.297 36.8984 203.688 38.1172V39.2422C204.547 39.8359 205.539 40.3281 206.664 40.7188C207.789 41.0938 208.648 41.2812 209.242 41.2812C209.383 41.2812 209.5 41.2656 209.594 41.2344ZM223.516 11.1406C224.328 10.5781 225.508 10.0781 227.055 9.64062C228.602 9.1875 230.07 8.96094 231.461 8.96094C232.633 8.96094 233.586 9.14063 234.32 9.5C234.32 12.0156 234.172 15.1719 233.875 18.9688C233.578 22.75 233.164 27.3594 232.633 32.7969C232.305 33.3594 231.789 33.8125 231.086 34.1562C230.398 34.4844 229.664 34.6484 228.883 34.6484C228.289 34.6484 227.719 34.5469 227.172 34.3438C226.625 34.1406 226.148 33.8359 225.742 33.4297L223.516 11.1406ZM229.234 37.6016C231.297 37.6016 232.797 38.0547 233.734 38.9609C234.688 39.8516 235.164 40.9766 235.164 42.3359C235.164 43.2422 234.875 44.0938 234.297 44.8906C233.734 45.6719 232.992 46.2969 232.07 46.7656C231.164 47.2344 230.219 47.4688 229.234 47.4688C228.25 47.4688 227.297 47.2344 226.375 46.7656C225.469 46.2969 224.727 45.6719 224.148 44.8906C223.586 44.0938 223.305 43.2422 223.305 42.3359C223.305 40.9766 223.773 39.8516 224.711 38.9609C225.664 38.0547 227.172 37.6016 229.234 37.6016Z" fill="#8D5F4A"/>
<defs>
<clipPath id="clip0_203_433">
<rect width="31" height="37" fill="white" transform="matrix(-1 0 0 1 190 18)"/>
</clipPath>
</defs>
</svg>
