<svg width="360" height="360" viewBox="0 0 360 360" fill="none" xmlns="http://www.w3.org/2000/svg">
<circle cx="180" cy="180" r="180" fill="#8D5F4A"/>
<path d="M288.002 324C288.002 324 281.212 284.924 257.578 259.502C245.409 249.924 239.642 234.52 241.571 219.263C245.281 190.006 246.447 142.83 224.716 105.295C222.023 100.642 218.398 96.5974 214.2 93.2023C196.476 78.9301 146.271 45.733 116.313 99.1962C109.974 110.513 108.914 124.073 113.536 136.187C117.246 145.911 123.564 157.27 134.228 165.423C134.228 165.423 178.009 197.027 158.08 234.059C155.684 238.523 152.059 242.191 148.094 245.397C136.242 254.996 117.373 264.867 102.659 284.924C101.727 286.181 89.0057 306.091 88.2213 307.453C80.8442 319.909 84.0018 333 84.0018 333L108.002 345L132.002 354L162.002 360H192.002C192.002 360 246.002 357 288.002 324Z" fill="#FFC64A"/>
<path d="M165.584 114.592C166.104 107.214 160.843 100.841 153.834 100.359C146.826 99.8774 140.723 105.468 140.204 112.846C139.685 120.225 144.945 126.597 151.954 127.079C158.962 127.561 165.065 121.97 165.584 114.592Z" fill="white"/>
<path d="M153.282 113.568C153.549 109.769 150.84 106.488 147.231 106.24C143.621 105.992 140.479 108.87 140.211 112.669C139.944 116.468 142.653 119.749 146.262 119.997C149.872 120.245 153.015 117.367 153.282 113.568Z" fill="black"/>
<path d="M202.352 116.76C202.871 109.382 197.611 103.009 190.602 102.527C183.593 102.045 177.491 107.636 176.972 115.014C176.452 122.393 181.713 128.765 188.721 129.247C195.73 129.729 201.833 124.138 202.352 116.76Z" fill="white"/>
<path d="M189.815 116.275C190.083 112.476 187.373 109.195 183.764 108.947C180.155 108.699 177.012 111.577 176.744 115.376C176.477 119.175 179.186 122.456 182.796 122.704C186.405 122.952 189.548 120.074 189.815 116.275Z" fill="black"/>
<path d="M140.927 149.938C143.003 145.101 133.833 136.628 120.446 131.013C107.058 125.398 94.5217 124.768 92.4454 129.606C90.3692 134.443 99.539 142.916 112.927 148.531C126.314 154.146 138.851 154.776 140.927 149.938Z" fill="#FF814A"/>
<path d="M116.191 160.68C130.63 158.968 141.822 153.35 141.189 148.133C140.556 142.915 128.337 140.074 113.898 141.786C99.4588 143.498 88.2667 149.115 88.8998 154.333C89.5329 159.55 101.752 162.392 116.191 160.68Z" fill="#FF814A"/>
<path d="M185.257 73.7667C192.563 65.1698 195.192 55.4667 191.131 52.0943C187.069 48.7219 177.854 52.9571 170.549 61.554C163.244 70.1509 160.614 79.854 164.676 83.2265C168.737 86.5989 177.952 82.3636 185.257 73.7667Z" fill="#FFC64A"/>
<path d="M172.766 67.5158C172.877 56.2889 168.439 47.144 162.854 47.0901C157.269 47.0361 152.651 56.0935 152.54 67.3204C152.429 78.5473 156.867 87.6922 162.452 87.7461C168.037 87.8001 172.655 78.7427 172.766 67.5158Z" fill="#FFC64A"/>
</svg>
