<svg width="176" height="199" viewBox="0 0 176 199" fill="none" xmlns="http://www.w3.org/2000/svg">
<g clip-path="url(#clip0_679_1151)">
<path d="M47.3838 19.3737C45.5427 17.2552 47.7172 12.3221 52.2407 8.35532C56.7642 4.38855 61.9237 2.89025 63.7648 5.00878C65.6059 7.12731 63.4314 12.0604 58.9079 16.0272C54.3844 19.994 49.2248 21.4923 47.3838 19.3737Z" fill="#FFC64A"/>
<path d="M45.8528 21.5906C42.9445 21.1064 41.3828 15.89 42.3645 9.93931C43.3463 3.98864 46.4997 -0.442843 49.408 0.0413184C52.3162 0.52548 53.878 5.74194 52.8962 11.6926C51.9145 17.6433 48.761 22.0748 45.8528 21.5906Z" fill="#FFC64A"/>
<path d="M88.6269 181.151C88.6269 181.151 92.9437 198.136 84.2744 198.964H64.9656V198.982C60.5594 198.082 55.6695 195.06 58.1771 188.852C59.3235 186.009 62.046 184.138 65.091 184.264L70.5183 184.48C70.8048 184.48 70.8407 184.462 70.8407 184.408L72.0407 173.162C72.0407 173.162 72.0945 173.072 72.1482 173.072L87.4448 175.933C87.4448 175.933 87.5164 175.969 87.5164 176.005L88.609 181.151H88.6269Z" fill="#FF814A"/>
<path d="M126.259 180.953C126.259 180.953 130.576 197.938 121.907 198.766H102.598V198.784C98.1917 197.884 93.3018 194.862 95.8094 188.654C96.9558 185.811 99.6784 183.94 102.723 184.066L108.151 184.282C108.437 184.282 108.473 184.264 108.473 184.21L109.673 172.964C109.673 172.964 109.727 172.875 109.781 172.875L125.077 175.735C125.077 175.735 125.149 175.771 125.149 175.807L126.241 180.953H126.259Z" fill="#FF814A"/>
<path d="M174.46 114.686C173.421 107.201 168.638 104.7 165.414 99.3741C164.25 97.4489 163.695 95.2178 163.766 92.9507C163.91 87.8408 159.718 76.9372 151.21 81.2374C145.926 83.9184 137.132 85.0879 131.472 83.3606C125.811 81.6333 118.038 82.7848 111.769 88.7944C109.53 90.9355 106.27 91.6912 103.225 92.303C92.6032 94.4441 66.1477 95.8116 66.6313 65.6017C66.685 62.5969 67.6702 57.8468 68.7628 55.058C71.9332 46.8712 75.3722 34.3303 64.3565 19.9541C60.0756 14.3583 49.6869 14.2684 45.209 14.5382C41.1251 14.7901 28.8914 9.19439 19.4162 34.4922C17.9295 38.4506 17.7146 42.7689 18.2161 46.9612C19.3803 56.6593 22.6403 75.2998 31.0946 85.5197C32.0439 86.6533 32.9216 87.8228 33.638 89.1183C35.7337 92.9327 39.2086 100.957 37.3099 109.36C37.3099 109.36 31.8648 137.555 43.4894 161.053C48.2898 170.769 57.7829 177.247 68.5299 178.308C78.6859 179.316 94.1615 180.054 114.133 178.686C116.515 178.524 120.33 177.859 122.623 177.211C131.489 174.71 164.25 171.777 172.507 148.368C172.794 147.523 173.116 146.713 173.51 145.921C174.728 143.474 177.702 135.252 174.692 116.935C174.567 116.197 174.567 115.442 174.46 114.704V114.686Z" fill="#FFC64A"/>
<path d="M29.9841 39.926C26.2744 39.926 23.2672 36.7037 23.2672 32.7288C23.2672 28.754 26.2744 25.5317 29.9841 25.5317C33.6937 25.5317 36.7009 28.754 36.7009 32.7288C36.7009 36.7037 33.6937 39.926 29.9841 39.926Z" fill="white"/>
<path d="M26.7242 35.9135C24.815 35.9135 23.2673 34.254 23.2673 32.207C23.2673 30.1599 24.815 28.5005 26.7242 28.5005C28.6334 28.5005 30.1812 30.1599 30.1812 32.207C30.1812 34.254 28.6334 35.9135 26.7242 35.9135Z" fill="black"/>
<path d="M44.4926 41.4374C40.783 41.4374 37.7757 38.2152 37.7757 34.2403C37.7757 30.2655 40.783 27.0432 44.4926 27.0432C48.2022 27.0432 51.2095 30.2655 51.2095 34.2403C51.2095 38.2152 48.2022 41.4374 44.4926 41.4374Z" fill="white"/>
<path d="M41.2684 37.551C39.3592 37.551 37.8114 35.8915 37.8114 33.8444C37.8114 31.7974 39.3592 30.1379 41.2684 30.1379C43.1776 30.1379 44.7253 31.7974 44.7253 33.8444C44.7253 35.8915 43.1776 37.551 41.2684 37.551Z" fill="black"/>
<path d="M139.568 119.94C139.568 119.94 138.26 134.802 125.776 130.358C125.776 130.358 117.859 161.647 91.9226 131.599" stroke="#FEECC2" stroke-width="4" stroke-linecap="round" stroke-linejoin="round"/>
<path d="M13.4603 54.0673C5.31578 52.0078 -0.679756 47.9164 0.0688773 44.9291C0.81751 41.9418 8.02682 41.1898 16.1713 43.2493C24.3158 45.3089 30.3113 49.4002 29.5627 52.3875C28.8141 55.3748 21.6048 56.1269 13.4603 54.0673Z" fill="#FF814A"/>
<path d="M0.288461 59.5737C-0.541369 56.6081 5.34032 52.3533 13.4256 50.0704C21.5108 47.7874 28.7379 48.3408 29.5678 51.3064C30.3976 54.2719 24.5159 58.5267 16.4307 60.8097C8.3454 63.0926 1.11829 62.5393 0.288461 59.5737Z" fill="#FF814A"/>
</g>
<defs>
<clipPath id="clip0_679_1151">
<rect width="176" height="199" fill="white" transform="matrix(-1 0 0 1 176 0)"/>
</clipPath>
</defs>
</svg>
