<svg width="277" height="315" viewBox="0 0 277 315" fill="none" xmlns="http://www.w3.org/2000/svg">
<g clip-path="url(#clip0_260_454)">
<path d="M74.5756 30.6667C71.678 27.3133 75.1004 19.5046 82.2198 13.2256C89.3392 6.9465 97.4596 4.57482 100.357 7.92827C103.255 11.2817 99.8324 19.0904 92.713 25.3695C85.5936 31.6485 77.4732 34.0202 74.5756 30.6667Z" fill="#FFC64A"/>
<path d="M72.1659 34.1758C67.5887 33.4094 65.1308 25.1522 66.6759 15.7328C68.221 6.31337 73.1842 -0.70129 77.7614 0.0650959C82.3385 0.831482 84.7965 9.0887 83.2514 18.5081C81.7062 27.9275 76.7431 34.9422 72.1659 34.1758Z" fill="#FFC64A"/>
<path d="M21.1847 85.5839C8.3664 82.3238 -1.06976 75.8476 0.108488 71.1189C1.28673 66.3903 12.6332 65.1998 25.4515 68.4599C38.2698 71.7201 47.706 78.1962 46.5277 82.9249C45.3495 87.6536 34.003 88.844 21.1847 85.5839Z" fill="#FF814A"/>
<path d="M0.454206 94.2997C-0.851834 89.6055 8.40514 82.8705 21.1302 79.2568C33.8553 75.6431 45.2298 76.519 46.5358 81.2133C47.8419 85.9076 38.5849 92.6425 25.8598 96.2562C13.1347 99.87 1.76024 98.994 0.454206 94.2997Z" fill="#FF814A"/>
<path d="M139.487 286.747C139.487 286.747 146.281 313.633 132.636 314.943H102.247V314.972C95.3121 313.547 87.6161 308.763 91.5628 298.937C93.367 294.437 97.6519 291.475 102.444 291.674L110.986 292.016C111.437 292.016 111.493 291.987 111.493 291.902L113.382 274.101C113.382 274.101 113.467 273.959 113.551 273.959L137.626 278.487C137.626 278.487 137.739 278.544 137.739 278.601L139.458 286.747H139.487Z" fill="#FF814A"/>
<path d="M198.715 286.433C198.715 286.433 205.509 313.32 191.865 314.63H161.475V314.658C154.54 313.234 146.844 308.449 150.791 298.623C152.595 294.123 156.88 291.161 161.673 291.361L170.214 291.702C170.665 291.702 170.722 291.674 170.722 291.589L172.611 273.788C172.611 273.788 172.695 273.646 172.78 273.646L196.854 278.174C196.854 278.174 196.967 278.231 196.967 278.288L198.687 286.433H198.715Z" fill="#FF814A"/>
<path d="M274.576 181.538C272.941 169.69 265.414 165.731 260.339 157.301C258.507 154.253 257.633 150.721 257.746 147.133C257.971 139.044 251.375 121.785 237.984 128.592C229.668 132.835 215.827 134.687 206.918 131.952C198.01 129.218 185.775 131.041 175.909 140.554C172.385 143.943 167.254 145.139 162.462 146.107C145.745 149.497 104.108 151.661 104.869 103.842C104.953 99.0853 106.504 91.5664 108.223 87.1518C113.213 74.1929 118.626 54.3417 101.288 31.5853C94.551 22.7277 78.2005 22.5853 71.1529 23.0126C64.7254 23.4113 45.4713 14.5537 30.5585 54.598C28.2187 60.8638 27.8804 67.6993 28.6697 74.3353C30.5021 89.6866 35.6328 119.193 48.9387 135.37C50.4328 137.164 51.8141 139.016 52.9418 141.066C56.24 147.104 61.709 159.807 58.7208 173.107C58.7208 173.107 50.1509 217.737 68.4465 254.933C76.0016 270.313 90.9426 280.566 107.857 282.247C123.841 283.842 148.198 285.009 179.63 282.845C183.379 282.588 189.384 281.535 192.992 280.509C206.947 276.551 258.507 271.908 271.503 234.854C271.954 233.516 272.461 232.234 273.082 230.981C274.998 227.107 279.678 214.092 274.942 185.098C274.745 183.93 274.745 182.734 274.576 181.566V181.538Z" fill="#FFC64A"/>
<path d="M47.1909 63.1994C41.3524 63.1994 36.6194 58.0988 36.6194 51.807C36.6194 45.5151 41.3524 40.4146 47.1909 40.4146C53.0293 40.4146 57.7623 45.5151 57.7623 51.807C57.7623 58.0988 53.0293 63.1994 47.1909 63.1994Z" fill="white"/>
<path d="M42.0602 56.8481C39.0554 56.8481 36.6195 54.2213 36.6195 50.981C36.6195 47.7407 39.0554 45.1139 42.0602 45.1139C45.0651 45.1139 47.501 47.7407 47.501 50.981C47.501 54.2213 45.0651 56.8481 42.0602 56.8481Z" fill="black"/>
<path d="M70.0252 65.5917C64.1868 65.5917 59.4538 60.4911 59.4538 54.1993C59.4538 47.9074 64.1868 42.8069 70.0252 42.8069C75.8637 42.8069 80.5967 47.9074 80.5967 54.1993C80.5967 60.4911 75.8637 65.5917 70.0252 65.5917Z" fill="white"/>
<path d="M64.951 59.4399C61.9461 59.4399 59.5102 56.8131 59.5102 53.5728C59.5102 50.3325 61.9461 47.7057 64.951 47.7057C67.9558 47.7057 70.3917 50.3325 70.3917 53.5728C70.3917 56.8131 67.9558 59.4399 64.951 59.4399Z" fill="black"/>
<path d="M219.661 189.854C219.661 189.854 217.603 213.38 197.954 206.345C197.954 206.345 185.494 255.873 144.674 208.31" stroke="#FEECC2" stroke-width="8" stroke-linecap="round" stroke-linejoin="round"/>
</g>
<defs>
<clipPath id="clip0_260_454">
<rect width="277" height="315" fill="white" transform="matrix(-1 0 0 1 277 0)"/>
</clipPath>
</defs>
</svg>
