<?xml version="1.0" encoding="UTF-8"?>
<svg id="Layer_2" xmlns="http://www.w3.org/2000/svg" viewBox="0 0 134.97 141.26">
  <defs>
    <style>
      .cls-1 {
        fill: #8d5f4a;
      }

      .cls-2 {
        stroke: #92a062;
        stroke-width: 2px;
      }

      .cls-2, .cls-3 {
        fill: none;
        stroke-miterlimit: 10;
      }

      .cls-3 {
        stroke: #cad2b0;
        stroke-linecap: round;
      }

      .cls-4 {
        fill: #cad2b0;
      }

      .cls-5 {
        fill: #92a062;
      }

      .cls-6 {
        font-family: Kavoon-Regular, Kavoon;
        font-size: 4.89px;
      }

      .cls-6, .cls-7 {
        fill: #e8caba;
      }

      .cls-8 {
        fill: #fff;
      }

      .cls-9 {
        fill: #ffc64a;
      }

      .cls-10 {
        fill: #ff814a;
      }
    </style>
  </defs>
  <g id="Witch_Duck">
    <g>
      <g id="Graph">
        <rect class="cls-1" x="13.2" y="53.06" width="3.21" height="39.15" transform="translate(28.3 -.26) rotate(22.01)"/>
        <rect class="cls-1" x="35.88" y="29.89" width="3.21" height="23.98" transform="translate(19.25 95.05) rotate(-119.24)"/>
        <rect class="cls-1" x="77.45" y="22.26" width="3.21" height="54.32" transform="translate(-4.33 91.11) rotate(-58.57)"/>
        <rect class="cls-1" x="116.54" y="41.09" width="3.21" height="23.98" transform="translate(164.26 174.12) rotate(-135.05)"/>
        <circle class="cls-2" cx="5.42" cy="94.22" r="4.42"/>
        <circle class="cls-2" cx="23.32" cy="50.93" r="4.42"/>
        <circle class="cls-2" cx="51.53" cy="34.41" r="4.42"/>
        <circle class="cls-2" cx="106.49" cy="64.14" r="4.42"/>
        <circle class="cls-2" cx="129.55" cy="42.43" r="4.42"/>
      </g>
      <path id="Right_Leg" class="cls-10" d="M88.31,122.73l.05,1.05c.07,1.36.92,2.54,2.17,3.07,2.69,1.15,6.47,3.65,1.21,7.46-.15.11-.32.22-.49.3-1.02.5-4.75,1.95-10.37-.22-.59-.23-1.1-.63-1.48-1.13-1.06-1.39-2.73-4.63-1.96-10.74.22-1.72,1.68-3.01,3.41-3.05l3.87-.08c1.9-.04,3.49,1.44,3.59,3.34Z"/>
      <path id="Left_Leg" class="cls-10" d="M47.66,123.48l.11,1.05c.15,1.35-.51,2.65-1.66,3.37-2.47,1.55-5.82,4.63-.02,7.56.17.09.35.16.53.22,1.09.34,5,1.18,10.2-1.85.55-.32.99-.79,1.29-1.35.83-1.54,1.97-5.01.24-10.91-.49-1.66-2.13-2.71-3.85-2.48l-3.84.53c-1.88.26-3.22,1.97-3.02,3.86Z"/>
      <path id="Body" class="cls-9" d="M90.91,68.93c9.94,6.73,24.81,22.01,5.06,45.64-2.4,2.86-5.41,5.14-8.84,6.62-10.17,4.38-35.59,8.38-53.85-3.03-3.32-2.08-7.75-13.94-7.22-19.28.95-9.55,3.18-24.97,22.36-34.07,6.02-2.86,5.97-4.98,6.9-9.45,1.04-4.98.21-6.8-1.35-13.65-.92-4.05.1-13.89,2.08-17.55,2.09-3.87,9.47-7.02,16.51-5.09,5.47,1.5,7.25,6.15,9.34,11.42,2.58,6.47,2.28,16.63,2.54,26.61.13,4.74,2.53,9.16,6.46,11.82Z"/>
      <ellipse id="Eye_Right" class="cls-8" cx="76.09" cy="31.45" rx="3.85" ry="4.1"/>
      <ellipse id="Eye_Right-2" data-name="Eye_Right" cx="75.4" cy="33.53" rx="1.98" ry="2.11"/>
      <ellipse id="Eye_Left" class="cls-8" cx="61.33" cy="32.82" rx="3.85" ry="4.1"/>
      <ellipse id="Eye_Left-2" data-name="Eye_Left" cx="62.75" cy="34.37" rx="1.98" ry="2.11"/>
      <ellipse class="cls-9" cx="64.22" cy="17.85" rx="2.91" ry="6.23" transform="translate(-2.15 23.97) rotate(-20.8)"/>
      <ellipse class="cls-9" cx="68.61" cy="19.31" rx="6.23" ry="3.06" transform="translate(28.35 78.12) rotate(-71.33)"/>
      <ellipse id="Mouth_Top" class="cls-10" cx="70.54" cy="43.41" rx="2.28" ry="6.25" transform="translate(10.89 100.87) rotate(-75.54)"/>
      <ellipse id="Mouth_Bottom" class="cls-10" cx="70.41" cy="40.29" rx="6.25" ry="2.28" transform="translate(-9.32 25.31) rotate(-19.13)"/>
      <path id="Hand" class="cls-10" d="M53.11,78.13l.06.26c.4,1.74,1.86,2.96,3.43,2.99s3.57.67,5.01,3.16c.49.85.62,1.88.4,2.79-.55,2.19-2.56,5.74-9.97,3.92,0,0-6.96-1.15-6.9-12.49,0-1.16.51-2.2,1.37-2.75s2.12-1.06,3.65-.87c1.4.18,2.61,1.44,2.96,2.99Z"/>
      <path id="Hand-2" data-name="Hand" class="cls-10" d="M85.46,77.58l-.06.26c-.4,1.74-1.86,2.96-3.43,2.99s-3.57.67-5.01,3.16c-.49.85-.62,1.88-.4,2.79.55,2.19,2.56,5.74,9.97,3.92,0,0,6.96-1.15,6.9-12.49,0-1.16-.51-2.2-1.37-2.75s-2.12-1.06-3.65-.87c-1.4.18-2.61,1.44-2.96,2.99Z"/>
      <g id="Cauldron">
        <path id="Cauldron_Right_Leg" class="cls-7" d="M94.65,130.93s2.54,9.2-1.6,10.1c0,0-5.1,1.8-12.4-5.6,0,0,5.2-7.9,14-4.5Z"/>
        <path id="Cauldron_Left_Leg" class="cls-7" d="M42.81,130.94s-2.16,9.48,1.6,10.1c0,0,5.1,1.8,12.4-5.6,0,0-5.2-7.9-14-4.5Z"/>
        <path id="Cauldron_Body" class="cls-1" d="M36.91,101.72c-3.21,6.07-6.7,17.82,4.58,30.06.55.6,1.3.95,1.97,1.42,4.3,3,32.14,13.28,52.47-3.63.27-.22.52-.47.75-.73,2.05-2.35,11.68-14.48,4.74-28.15-1.45-2.85-4.81-4.14-7.8-3-7.6,2.89-24.67,7.17-49.67.9-2.79-.7-5.7.59-7.05,3.13Z"/>
        <path id="Cauldron_Middle" class="cls-7" d="M39.71,99.04s-3.8-2.4.8-3.6c0,0,32,7.7,55.9-.7,0,0,4.8-.2,1.2,2.9,0,0-22.2,13.1-57.9,1.4Z"/>
        <path id="Cauldron_Upper" class="cls-1" d="M41.29,85.74l53.96-.18c3.96-.01,6.31,4.67,3.71,7.66-.04.04-.08.09-.12.13-.39.44-.89.75-1.43.99-4.44,1.98-26.35,10.51-56.31,1.57-.65-.2-1.16-.69-1.78-.97-2.82-1.29-4.87-4.97-.86-8.24.79-.64,1.81-.95,2.83-.95Z"/>
      </g>
      <g id="Frog">
        <rect id="Frog_Leg" class="cls-4" x="75.39" y="136.24" width="8.5" height="4.99" rx="2.5" ry="2.5"/>
        <rect id="Frog_Leg-2" data-name="Frog_Leg" class="cls-4" x="52.01" y="136.24" width="8.5" height="4.99" rx="2.5" ry="2.5"/>
        <rect id="Frog_Body" class="cls-5" x="55.24" y="127.35" width="25.92" height="13.92" rx="6.96" ry="6.96"/>
        <circle id="Eye" class="cls-5" cx="63.98" cy="127.72" r="3.61"/>
        <circle id="Eye-2" data-name="Eye" class="cls-5" cx="72.41" cy="127.73" r="3.61"/>
        <ellipse id="Eye_Right-3" data-name="Eye_Right" class="cls-8" cx="72.39" cy="127.04" rx="2.02" ry="2.15"/>
        <ellipse id="Eye_Right-4" data-name="Eye_Right" cx="72.2" cy="127.14" rx="1.04" ry="1.11"/>
        <ellipse id="Eye_Left-3" data-name="Eye_Left" class="cls-8" cx="63.97" cy="127.02" rx="2.02" ry="2.15"/>
        <ellipse id="Eye_Left-4" data-name="Eye_Left" cx="64.15" cy="127.16" rx="1.04" ry="1.11"/>
        <line id="Hand-3" data-name="Hand" class="cls-3" x1="65.11" y1="140.76" x2="62.35" y2="136.47"/>
        <line id="Hand-4" data-name="Hand" class="cls-3" x1="71.49" y1="140.75" x2="74.26" y2="136.46"/>
        <path id="Mouth" class="cls-4" d="M68.21,131.29h1.04s0,0,0,0c0,.59-.47,1.07-1.04,1.07s-1.04-.48-1.04-1.07h1.04Z"/>
      </g>
      <g id="Bottle_2">
        <path class="cls-7" d="M107.32,140.56v-12.55c0-.17.06-.33.17-.45,1.36-1.49,10.62-10.77,20.94,0,.12.13.19.3.19.48v12.46c0,.37-.3.68-.68.68l-19.95.06c-.37,0-.68-.3-.68-.68Z"/>
        <polygon class="cls-1" points="116.64 120.58 116.06 117.52 119.82 117.55 119.27 120.61 116.64 120.58"/>
        <rect class="cls-7" x="112.04" y="119.84" width="11.73" height="7.99" rx=".68" ry=".68"/>
        <rect class="cls-1" x="107.32" y="129.5" width="21.3" height="11.73" rx=".57" ry=".57"/>
        <path class="cls-1" d="M108.29,128.85s.02.01.03.02c.79.42,1.74.41,2.54,0,.93-.47,2.54-1.07,3.76-.44,0,0,1.62,1.21,3.37.13,0,0,2.09-.94,3.64.2,0,0,1.61.77,2.76-.27.05-.05.1-.09.17-.11.43-.18,2.26-.84,3.82.37.16.12.25.33.25.53v2.02c0,.38-.31.68-.68.68l-19.96-.21c-.37,0-.66-.28-.66-.66v-1.67c0-.5.54-.84.98-.6Z"/>
        <text class="cls-6" transform="translate(109.23 133.77)"><tspan x="0" y="0">Why no</tspan><tspan x="-1.3" y="5.86">subsidy?</tspan></text>
      </g>
      <g id="Bottle_1">
        <circle class="cls-7" cx="16.89" cy="131.26" r="9.98"/>
        <polygon class="cls-1" points="15.37 110.6 14.78 107.55 18.54 107.58 17.99 110.63 15.37 110.6"/>
        <rect class="cls-7" x="14.19" y="110.01" width="4.75" height="26.82"/>
        <path class="cls-1" d="M7.75,127.32s1.97,1.43,3.86.15c0,0,2.75-1.5,4.06.25,0,0,1.09.11,2.14-.46.41-.22.91-.29,1.37-.18.38.09.81.28,1.17.69,0,0,1.3.16,2.18-.62.39-.35.87-.59,1.39-.58.76,0,1.77.12,2.15.59,0,0,4.04,7.2-3.83,12.57,0,0-5.25,3.65-11.03-.36-.04-.03-.08-.06-.13-.09-5.83-4.15-3.97-11.24-3.33-11.96Z"/>
        <text class="cls-6" transform="translate(9.06 133.14) rotate(-9.7)"><tspan x="0" y="0">Why so</tspan><tspan x="0" y="5.86">dirty??</tspan></text>
      </g>
      <g id="Hat">
        <path class="cls-1" d="M55.81,15.7c-.35.91-1.17,1.69-2.25,2.14-2.31.97-7.5,3.51-4.76,5.92,0,0,2.87,2.8,7.36.87,1.47-.63,3.22-.68,4.55.03.44.23.92.53,1.44.91.78.56,1.8.88,2.88.9,2.19.02,5.9-.3,8.92-2.4,1.07-.74,2.45-1.15,3.82-.99.13.01.25.03.37.05,1.51.27,3.07.18,4.47-.45.49-.22,1-.48,1.48-.76,2.87-1.71,2.21-5.13-1.09-5.99-.61-.16-1.32-.3-2.14-.41-1.63-.21-3.02-1.06-3.42-2.3,0-.02-.01-.03-.02-.05,0,0-1.81-3.73-4.83-6.5-.28-.26-.53-.55-.69-.87-.41-.78-1.17-2.39-1.48-3.99,0,0-1.72-4.05-4.49-.04-.15.22-.31.43-.49.62-1.16,1.23-5.75,6.11-7.48,8.35-.14.19-.27.38-.38.59-.36.67-1.15,2.22-1.5,3.51,0,0-.09.37-.27.85Z"/>
        <path class="cls-7" d="M57.36,11.72s-1.02,2.03-1.12,2.6h21.91s-.78-1.25-1.43-2.49c0,0-19.36-.21-19.36-.11Z"/>
      </g>
    </g>
  </g>
</svg>